<svg width="176" height="246" viewBox="0 0 176 246" fill="none" xmlns="http://www.w3.org/2000/svg">
<path d="M76.0352 184.966L109.445 182.472C108.379 181.48 123.668 160.055 131.446 149.466L157.075 109.887L165.605 60.618L156.955 35.161L130.43 14.2146L108.229 5.99665L91.4083 4.02686C87.1345 4.61061 78.3202 5.53003 77.2537 4.53776C76.1871 3.54549 64.8302 5.41565 59.2851 6.47476L52.9905 10.5673L43.983 10.8924C33.8374 15.3817 18.9286 30.6942 12.7424 37.7892C-10.7176 101.771 46.5649 153.818 49.2313 156.299C51.3645 158.284 67.9894 176.237 76.0352 184.966Z" fill="white"/>
<path d="M76.0468 3.60982C76.2934 2.91283 89.0022 3.08156 90.9297 3.14214C106.828 33.1751 95.632 150.103 92.7545 184.03C95.1616 183.991 97.5586 183.777 99.9428 183.451C111.252 150.738 126.821 101.154 123.877 66.6544C123.55 64.0623 123.377 27.5434 107.49 5.41617C115.518 7.18334 123.34 9.95338 130.654 13.7261C137.663 22.5243 148.488 45.7003 144.09 83.5005C138.863 126.358 126.906 141.156 105.372 182.363C106.844 181.965 108.297 181.503 109.728 180.975C108.724 184.63 105.615 196.053 104.227 199.561C104.154 199.586 104.007 199.634 103.934 199.658C103.23 203.548 102.521 207.439 101.826 211.33C102.09 212.174 104.812 224.51 104.845 224.66C105.283 224.652 105.784 224.578 106.149 224.889C106.539 225.179 106.65 225.792 106.325 226.174C105.993 226.529 105.473 226.435 105.039 226.486C105.52 242.957 107.228 241.697 92.1384 242.36C82.4257 242.873 84.5571 239.263 83.8834 227.207C83.4283 227.233 82.9013 227.425 82.494 227.138C81.9275 226.761 82.0633 225.717 82.7448 225.559C83.1609 225.493 83.5836 225.509 84.0026 225.49C86.2149 210.258 86.0551 212.395 85.8209 211.33C84.8897 207.703 84.022 204.061 83.0646 200.443C81.6536 199.255 75.4622 185.335 74.7826 181.997C73.2247 180.363 71.6061 178.786 70.0312 177.171C49.2044 143.891 48.7316 143.458 46.2737 138.987C35.3362 120.962 13.2776 60.968 35.6888 19.7386C36.1275 18.9567 39.5704 13.0958 40.2232 12.8143C46.7128 9.51636 53.6667 7.20964 60.7575 5.6322C57.0488 11.4158 53.8984 17.6722 51.263 28.124C44.6788 54.7834 48.1617 88.122 50.5524 99.3944C55.7124 125.075 68.4796 158.659 78.6133 182.875C81.3348 183.401 84.0941 183.72 86.8581 183.892C82.9446 159.858 74.7958 107.541 72.7785 83.2832L72.1464 74.4368C71.9633 73.028 68.3444 21.3555 76.0468 3.60982ZM83.7232 200.558C84.6104 204.08 85.499 207.603 86.3789 211.128C86.2903 207.77 86.1442 204.415 86.0268 201.058C85.2518 200.926 84.4842 200.755 83.7232 200.558ZM100.937 200.619C101.111 204.637 101.227 209.75 101.377 210.732C101.46 209.741 103.261 200.048 103.29 199.894C102.522 200.186 101.721 200.377 100.937 200.619ZM86.6817 201.175C86.8103 204.526 86.8824 207.882 87.0698 211.229C87.576 207.956 88.1911 204.701 88.7682 201.441C88.067 201.403 87.374 201.283 86.6817 201.175ZM98.2915 201.155C99.1052 204.378 99.905 207.604 100.722 210.825C100.636 207.466 100.485 204.108 100.374 200.752C99.6802 200.89 98.988 201.03 98.2915 201.155ZM89.3562 201.512C88.739 204.986 88.1294 208.462 87.5186 211.937C88.1522 211.912 88.7871 211.889 89.422 211.867C89.4318 211.059 89.2485 210.227 89.4763 209.438C89.9384 208.037 92.2233 207.918 92.8478 209.244C93.2125 210.018 93.0496 210.905 93.1273 211.732C93.6041 211.715 94.081 211.698 94.5591 211.681C94.5889 210.872 94.3575 210.03 94.6044 209.247C95.1264 207.838 97.4328 207.793 98.0022 209.189C98.2543 209.943 98.1231 210.765 98.1904 211.548C98.887 211.526 99.5821 211.502 100.278 211.472C99.4027 208.065 98.5521 204.653 97.7003 201.241C95.6768 201.572 92.5624 201.76 89.3562 201.512ZM87.3595 213.516C86.7528 217.488 86.1727 221.465 85.5407 225.435C94.1486 225.034 102.348 224.758 103.303 224.726C102.385 220.832 101.506 216.929 100.585 213.037C99.8206 213.066 99.0564 213.091 98.2935 213.122C97.8873 215.36 95.1408 215.497 94.5619 213.257C94.0987 213.271 93.6358 213.288 93.1742 213.307C92.7223 215.715 89.808 215.364 89.491 213.464C88.7793 213.448 88.0699 213.493 87.3595 213.516Z" fill="#FF0000"/>
<path d="M76.0468 3.60982C76.2934 2.91283 89.0022 3.08156 90.9297 3.14214C106.828 33.1751 95.632 150.103 92.7545 184.03C95.1616 183.991 97.5586 183.777 99.9428 183.451C111.252 150.738 126.821 101.154 123.877 66.6544C123.55 64.0623 123.377 27.5434 107.49 5.41617C115.518 7.18334 123.34 9.95338 130.654 13.7261C137.663 22.5243 148.488 45.7003 144.09 83.5005C138.863 126.358 126.906 141.156 105.372 182.363C106.844 181.965 108.297 181.503 109.728 180.975C108.724 184.63 105.615 196.053 104.227 199.561C104.154 199.586 104.007 199.634 103.934 199.658C103.23 203.548 102.521 207.439 101.826 211.33C102.09 212.174 104.812 224.51 104.845 224.66C105.283 224.652 105.784 224.578 106.149 224.889C106.539 225.179 106.65 225.792 106.325 226.174C105.993 226.529 105.473 226.435 105.039 226.486C105.52 242.957 107.228 241.697 92.1384 242.36C82.4257 242.873 84.5571 239.263 83.8834 227.207C83.4283 227.233 82.9013 227.425 82.494 227.138C81.9275 226.761 82.0633 225.717 82.7448 225.559C83.1609 225.493 83.5836 225.509 84.0026 225.49C86.2149 210.258 86.0551 212.395 85.8209 211.33C84.8897 207.703 84.022 204.061 83.0646 200.443C81.6536 199.255 75.4622 185.335 74.7826 181.997C73.2247 180.363 71.6061 178.786 70.0312 177.171C49.2044 143.891 48.7316 143.458 46.2737 138.987C35.3362 120.962 13.2776 60.968 35.6888 19.7386C36.1275 18.9567 39.5704 13.0958 40.2232 12.8143C46.7128 9.51636 53.6667 7.20964 60.7575 5.6322C57.0488 11.4158 53.8984 17.6722 51.263 28.124C44.6788 54.7834 48.1617 88.122 50.5524 99.3944C55.7124 125.075 68.4796 158.659 78.6133 182.875C81.3348 183.401 84.0941 183.72 86.8581 183.892C82.9446 159.858 74.7958 107.541 72.7785 83.2832L72.1464 74.4368C71.9633 73.028 68.3444 21.3555 76.0468 3.60982ZM83.7232 200.558C84.6104 204.08 85.499 207.603 86.3789 211.128C86.2903 207.77 86.1442 204.415 86.0268 201.058C85.2518 200.926 84.4842 200.755 83.7232 200.558ZM100.937 200.619C101.111 204.637 101.227 209.75 101.377 210.732C101.46 209.741 103.261 200.048 103.29 199.894C102.522 200.186 101.721 200.377 100.937 200.619ZM86.6817 201.175C86.8103 204.526 86.8824 207.882 87.0698 211.229C87.576 207.956 88.1911 204.701 88.7682 201.441C88.067 201.403 87.374 201.283 86.6817 201.175ZM98.2915 201.155C99.1052 204.378 99.905 207.604 100.722 210.825C100.636 207.466 100.485 204.108 100.374 200.752C99.6802 200.89 98.988 201.03 98.2915 201.155ZM89.3562 201.512C88.739 204.986 88.1294 208.462 87.5186 211.937C88.1522 211.912 88.7871 211.889 89.422 211.867C89.4318 211.059 89.2485 210.227 89.4763 209.438C89.9384 208.037 92.2233 207.918 92.8478 209.244C93.2125 210.018 93.0496 210.905 93.1273 211.732C93.6041 211.715 94.081 211.698 94.5591 211.681C94.5889 210.872 94.3575 210.03 94.6044 209.247C95.1264 207.838 97.4328 207.793 98.0022 209.189C98.2543 209.943 98.1231 210.765 98.1904 211.548C98.887 211.526 99.5821 211.502 100.278 211.472C99.4027 208.065 98.5521 204.653 97.7003 201.241C95.6768 201.572 92.5624 201.76 89.3562 201.512ZM87.3595 213.516C86.7528 217.488 86.1727 221.465 85.5407 225.435C94.1486 225.034 102.348 224.758 103.303 224.726C102.385 220.832 101.506 216.929 100.585 213.037C99.8206 213.066 99.0564 213.091 98.2935 213.122C97.8873 215.36 95.1408 215.497 94.5619 213.257C94.0987 213.271 93.6358 213.288 93.1742 213.307C92.7223 215.715 89.808 215.364 89.491 213.464C88.7793 213.448 88.0699 213.493 87.3595 213.516Z" fill="url(#paint0_linear_45_29)" fill-opacity="0.25"/>
<path d="M156.718 34.798C157.48 35.5772 162.851 42.3692 166.215 51.5646C176.177 78.3154 164.066 104.388 147.722 127.757C145.697 130.662 123.264 161.064 123.25 161.08C141.515 132.926 174.244 91.814 156.718 34.798Z" fill="#FF0000"/>
<path d="M156.718 34.798C157.48 35.5772 162.851 42.3692 166.215 51.5646C176.177 78.3154 164.066 104.388 147.722 127.757C145.697 130.662 123.264 161.064 123.25 161.08C141.515 132.926 174.244 91.814 156.718 34.798Z" fill="url(#paint1_linear_45_29)" fill-opacity="0.25"/>
<path d="M13.2095 37.3953C9.14411 54.4331 6.1652 74.9523 17.182 104.851C25.5596 127.37 33.5775 135.472 49.4867 156.438C48.6926 155.754 33.3162 140.219 31.0986 138.214C9.4208 117.558 -3.75665 86.577 5.68769 55.8172C6.95999 49.4492 10.014 42.4289 13.2095 37.3953Z" fill="#FF0000"/>
<path d="M13.2095 37.3953C9.14411 54.4331 6.1652 74.9523 17.182 104.851C25.5596 127.37 33.5775 135.472 49.4867 156.438C48.6926 155.754 33.3162 140.219 31.0986 138.214C9.4208 117.558 -3.75665 86.577 5.68769 55.8172C6.95999 49.4492 10.014 42.4289 13.2095 37.3953Z" fill="url(#paint2_linear_45_29)" fill-opacity="0.25"/>
<defs>
<linearGradient id="paint0_linear_45_29" x1="83.6409" y1="3.01883" x2="92.2796" y2="242.361" gradientUnits="userSpaceOnUse">
<stop stop-color="white"/>
<stop offset="1" stop-color="white" stop-opacity="0"/>
</linearGradient>
<linearGradient id="paint1_linear_45_29" x1="83.6409" y1="3.01883" x2="92.2796" y2="242.361" gradientUnits="userSpaceOnUse">
<stop stop-color="white"/>
<stop offset="1" stop-color="white" stop-opacity="0"/>
</linearGradient>
<linearGradient id="paint2_linear_45_29" x1="83.6409" y1="3.01883" x2="92.2796" y2="242.361" gradientUnits="userSpaceOnUse">
<stop stop-color="white"/>
<stop offset="1" stop-color="white" stop-opacity="0"/>
</linearGradient>
</defs>
</svg>
