<svg width="6014" height="2806" viewBox="0 0 6014 2806" fill="none" xmlns="http://www.w3.org/2000/svg">
<rect width="6014" height="2806" fill="#C53E3E"/>
<path d="M2346 1273C2324.67 1273 2308.67 1271.33 2298 1268C2288 1264.67 2283 1260.33 2283 1255C2283 1249.67 2286.67 1241.33 2294 1230L2445 1006L2303 790C2295.67 778.667 2292 770 2292 764C2292 758.667 2297 754.333 2307 751C2317.67 747.667 2333.67 746 2355 746H2387C2401.67 746 2414 747 2424 749C2434.67 750.333 2442.67 755.667 2448 765L2509 864C2511.67 868 2514 872 2516 876C2518.67 880 2521.33 884 2524 888C2527.33 883.333 2530.33 879 2533 875C2535.67 871 2538.33 866.667 2541 862L2603 765C2608.33 755.667 2616 750.333 2626 749C2636.67 747 2649.33 746 2664 746H2693C2735 746 2756 752 2756 764C2756 769.333 2752.33 777.667 2745 789L2599 1005L2747 1229C2754.33 1240.33 2758 1249 2758 1255C2758 1260.33 2752.67 1264.67 2742 1268C2732 1271.33 2716.33 1273 2695 1273H2663C2648.33 1273 2635.67 1272 2625 1270C2615 1268 2607.33 1262.67 2602 1254L2533 1144C2531 1140.67 2528.67 1137.33 2526 1134C2524 1130 2522 1126.33 2520 1123C2518 1126.33 2515.67 1130 2513 1134C2511 1137.33 2509 1140.67 2507 1144L2437 1254C2431.67 1262.67 2423.67 1268 2413 1270C2403 1272 2390.67 1273 2376 1273H2346Z" fill="white"/>
<path d="M3319 1273C3297.67 1273 3281.67 1271.33 3271 1268C3261 1264.67 3256 1260.33 3256 1255C3256 1249.67 3259.67 1241.33 3267 1230L3418 1006L3276 790C3268.67 778.667 3265 770 3265 764C3265 758.667 3270 754.333 3280 751C3290.67 747.667 3306.67 746 3328 746H3360C3374.67 746 3387 747 3397 749C3407.67 750.333 3415.67 755.667 3421 765L3482 864C3484.67 868 3487 872 3489 876C3491.67 880 3494.33 884 3497 888C3500.33 883.333 3503.33 879 3506 875C3508.67 871 3511.33 866.667 3514 862L3576 765C3581.33 755.667 3589 750.333 3599 749C3609.67 747 3622.33 746 3637 746H3666C3708 746 3729 752 3729 764C3729 769.333 3725.33 777.667 3718 789L3572 1005L3720 1229C3727.33 1240.33 3731 1249 3731 1255C3731 1260.33 3725.67 1264.67 3715 1268C3705 1271.33 3689.33 1273 3668 1273H3636C3621.33 1273 3608.67 1272 3598 1270C3588 1268 3580.33 1262.67 3575 1254L3506 1144C3504 1140.67 3501.67 1137.33 3499 1134C3497 1130 3495 1126.33 3493 1123C3491 1126.33 3488.67 1130 3486 1134C3484 1137.33 3482 1140.67 3480 1144L3410 1254C3404.67 1262.67 3396.67 1268 3386 1270C3376 1272 3363.67 1273 3349 1273H3319Z" fill="white"/>
<path d="M2463.12 2000.01C2430 2024.89 2423.33 2071.91 2448.22 2105.02C2473.1 2138.14 2520.12 2144.81 2553.23 2119.92L2463.12 2000.01ZM3390.62 2117.55C3422.42 2144.09 3469.71 2139.82 3496.26 2108.02C3522.8 2076.22 3518.53 2028.93 3486.73 2002.38L3390.62 2117.55ZM2553.23 2119.92C2695.79 2012.79 2839.29 1958.56 2977.37 1956.48C3114.56 1954.42 3254.17 2003.67 3390.62 2117.55L3486.73 2002.38C3326.68 1868.8 3153.04 1803.82 2975.11 1806.5C2798.06 1809.17 2624.56 1878.68 2463.12 2000.01L2553.23 2119.92Z" fill="white"/>
</svg>
