<svg width="4784" height="2570" viewBox="0 0 4784 2570" fill="none" xmlns="http://www.w3.org/2000/svg">
<rect width="4784" height="2570" fill="url(#paint0_linear_177_254)"/>
<path d="M501.083 1144.78H455.673L455.429 1121.09H494.369C501.042 1121.09 506.617 1120.16 511.093 1118.29C515.569 1116.42 518.946 1113.69 521.225 1110.11C523.585 1106.53 524.765 1102.17 524.765 1097.05C524.765 1091.35 523.666 1086.71 521.469 1083.13C519.353 1079.55 516.016 1076.95 511.459 1075.32C506.902 1073.61 501.124 1072.75 494.125 1072.75H466.537V1224H432.968V1046.27H494.125C504.216 1046.27 513.209 1047.24 521.103 1049.2C529.078 1051.07 535.832 1054 541.366 1057.98C546.9 1061.97 551.091 1066.98 553.939 1073C556.869 1079.02 558.334 1086.18 558.334 1094.48C558.334 1101.81 556.625 1108.56 553.207 1114.75C549.87 1120.85 544.703 1125.81 537.704 1129.64C530.787 1133.46 521.998 1135.66 511.337 1136.23L501.083 1144.78ZM499.618 1224H445.785L459.823 1197.63H499.618C506.291 1197.63 511.785 1196.53 516.098 1194.34C520.492 1192.14 523.747 1189.13 525.863 1185.3C528.061 1181.4 529.159 1176.92 529.159 1171.88C529.159 1166.34 528.183 1161.54 526.229 1157.47C524.358 1153.4 521.347 1150.27 517.196 1148.07C513.127 1145.88 507.756 1144.78 501.083 1144.78H466.171L466.415 1121.09H510.849L518.539 1130.25C528.793 1130.33 537.134 1132.37 543.563 1136.35C550.074 1140.34 554.875 1145.47 557.968 1151.73C561.06 1158 562.606 1164.76 562.606 1172C562.606 1183.39 560.124 1192.95 555.16 1200.68C550.277 1208.42 543.116 1214.23 533.676 1218.14C524.317 1222.05 512.965 1224 499.618 1224ZM667.831 1192.63V1091.92H700.302V1224H669.784L667.831 1192.63ZM671.981 1165.28L681.991 1165.04C681.991 1173.91 681.015 1182.09 679.062 1189.58C677.108 1197.06 674.057 1203.57 669.906 1209.11C665.837 1214.56 660.67 1218.83 654.403 1221.92C648.137 1224.94 640.731 1226.44 632.187 1226.44C625.676 1226.44 619.735 1225.55 614.364 1223.76C608.993 1221.88 604.354 1219 600.448 1215.09C596.623 1211.1 593.653 1206.01 591.537 1199.83C589.421 1193.56 588.363 1186.04 588.363 1177.25V1091.92H620.59V1177.49C620.59 1181.89 621.078 1185.55 622.055 1188.48C623.113 1191.41 624.537 1193.81 626.327 1195.68C628.199 1197.47 630.355 1198.77 632.797 1199.59C635.32 1200.32 638.005 1200.68 640.854 1200.68C648.666 1200.68 654.81 1199.14 659.286 1196.05C663.843 1192.87 667.099 1188.64 669.052 1183.35C671.005 1177.98 671.981 1171.96 671.981 1165.28ZM791.366 1091.92V1115.11H715.683V1091.92H791.366ZM735.946 1059.45H768.295V1185.91C768.295 1189.82 768.824 1192.83 769.882 1194.95C770.94 1197.06 772.527 1198.49 774.643 1199.22C776.758 1199.95 779.281 1200.32 782.211 1200.32C784.327 1200.32 786.28 1200.2 788.07 1199.95C789.861 1199.71 791.366 1199.46 792.587 1199.22L792.709 1223.39C790.023 1224.28 786.972 1225.02 783.554 1225.59C780.217 1226.16 776.433 1226.44 772.201 1226.44C764.958 1226.44 758.611 1225.22 753.158 1222.78C747.706 1220.26 743.474 1216.23 740.463 1210.69C737.452 1205.08 735.946 1197.67 735.946 1188.48V1059.45ZM937.606 1091.92V1115.11H861.923V1091.92H937.606ZM882.187 1059.45H914.535V1185.91C914.535 1189.82 915.064 1192.83 916.122 1194.95C917.18 1197.06 918.767 1198.49 920.883 1199.22C922.999 1199.95 925.521 1200.32 928.451 1200.32C930.567 1200.32 932.52 1200.2 934.311 1199.95C936.101 1199.71 937.606 1199.46 938.827 1199.22L938.949 1223.39C936.264 1224.28 933.212 1225.02 929.794 1225.59C926.457 1226.16 922.673 1226.44 918.441 1226.44C911.199 1226.44 904.851 1225.22 899.398 1222.78C893.946 1220.26 889.714 1216.23 886.703 1210.69C883.692 1205.08 882.187 1197.67 882.187 1188.48V1059.45ZM990.707 1036.5V1224H958.358V1036.5H990.707ZM985.58 1153.2H976.059C976.059 1144 977.279 1135.54 979.721 1127.81C982.162 1120.08 985.621 1113.36 990.097 1107.67C994.573 1101.89 999.903 1097.41 1006.09 1094.24C1012.35 1091.07 1019.27 1089.48 1026.84 1089.48C1033.35 1089.48 1039.25 1090.41 1044.54 1092.29C1049.91 1094.08 1054.51 1096.97 1058.33 1100.95C1062.16 1104.94 1065.09 1110.15 1067.12 1116.58C1069.24 1122.93 1070.3 1130.66 1070.3 1139.77V1224H1037.83V1139.53C1037.83 1133.42 1036.93 1128.62 1035.14 1125.12C1033.35 1121.54 1030.79 1118.98 1027.45 1117.43C1024.19 1115.89 1020.17 1115.11 1015.37 1115.11C1010.16 1115.11 1005.68 1116.13 1001.94 1118.17C998.194 1120.12 995.102 1122.84 992.66 1126.34C990.3 1129.84 988.51 1133.87 987.289 1138.43C986.15 1142.99 985.58 1147.91 985.58 1153.2ZM1158.07 1226.44C1148.06 1226.44 1139.06 1224.81 1131.09 1221.56C1123.11 1218.3 1116.32 1213.79 1110.7 1208.01C1105.17 1202.15 1100.9 1195.35 1097.88 1187.62C1094.96 1179.81 1093.49 1171.43 1093.49 1162.48V1157.59C1093.49 1147.42 1094.96 1138.18 1097.88 1129.88C1100.81 1121.5 1104.96 1114.3 1110.34 1108.28C1115.71 1102.26 1122.14 1097.62 1129.62 1094.36C1137.11 1091.11 1145.37 1089.48 1154.4 1089.48C1163.76 1089.48 1172.02 1091.07 1179.18 1094.24C1186.35 1097.33 1192.33 1101.73 1197.13 1107.42C1201.93 1113.12 1205.55 1119.96 1207.99 1127.93C1210.43 1135.82 1211.65 1144.57 1211.65 1154.18V1167.73H1108.14V1145.51H1179.92V1143.07C1179.75 1137.94 1178.78 1133.26 1176.99 1129.03C1175.2 1124.72 1172.43 1121.3 1168.69 1118.78C1164.94 1116.17 1160.1 1114.87 1154.16 1114.87C1149.36 1114.87 1145.17 1115.93 1141.59 1118.04C1138.09 1120.08 1135.16 1123.01 1132.8 1126.83C1130.52 1130.58 1128.81 1135.05 1127.67 1140.26C1126.53 1145.47 1125.96 1151.25 1125.96 1157.59V1162.48C1125.96 1168.01 1126.69 1173.14 1128.16 1177.86C1129.7 1182.58 1131.94 1186.69 1134.87 1190.19C1137.88 1193.6 1141.46 1196.29 1145.61 1198.24C1149.85 1200.11 1154.65 1201.05 1160.02 1201.05C1166.77 1201.05 1172.88 1199.75 1178.33 1197.14C1183.86 1194.46 1188.66 1190.51 1192.73 1185.3L1208.97 1202.15C1206.2 1206.22 1202.46 1210.12 1197.74 1213.87C1193.1 1217.61 1187.48 1220.66 1180.89 1223.02C1174.3 1225.3 1166.69 1226.44 1158.07 1226.44ZM1327.62 1119.02V1224H1295.39V1091.92H1325.79L1327.62 1119.02ZM1322.86 1153.2H1312.97C1312.97 1144 1314.07 1135.54 1316.27 1127.81C1318.55 1120.08 1321.88 1113.36 1326.28 1107.67C1330.67 1101.89 1336.08 1097.41 1342.51 1094.24C1349.02 1091.07 1356.55 1089.48 1365.1 1089.48C1371.04 1089.48 1376.49 1090.37 1381.45 1092.16C1386.42 1093.87 1390.69 1096.6 1394.27 1100.34C1397.93 1104 1400.74 1108.81 1402.69 1114.75C1404.65 1120.61 1405.62 1127.65 1405.62 1135.87V1224H1373.4V1139.16C1373.4 1132.98 1372.5 1128.13 1370.71 1124.63C1369 1121.14 1366.52 1118.69 1363.27 1117.31C1360.01 1115.85 1356.1 1115.11 1351.55 1115.11C1346.5 1115.11 1342.15 1116.13 1338.49 1118.17C1334.9 1120.12 1331.93 1122.84 1329.57 1126.34C1327.3 1129.84 1325.59 1133.87 1324.45 1138.43C1323.39 1142.99 1322.86 1147.91 1322.86 1153.2ZM1403.18 1147.22L1389.88 1149.66C1389.96 1141.36 1391.1 1133.59 1393.29 1126.34C1395.49 1119.02 1398.71 1112.63 1402.94 1107.18C1407.25 1101.64 1412.58 1097.33 1418.93 1094.24C1425.36 1091.07 1432.76 1089.48 1441.15 1089.48C1447.66 1089.48 1453.52 1090.41 1458.72 1092.29C1464.01 1094.08 1468.53 1096.97 1472.27 1100.95C1476.02 1104.86 1478.87 1109.95 1480.82 1116.21C1482.85 1122.48 1483.87 1130.13 1483.87 1139.16V1224H1451.4V1139.04C1451.4 1132.61 1450.51 1127.69 1448.71 1124.27C1447.01 1120.85 1444.52 1118.49 1441.27 1117.19C1438.01 1115.81 1434.19 1115.11 1429.79 1115.11C1425.32 1115.11 1421.41 1115.97 1418.08 1117.68C1414.82 1119.3 1412.05 1121.58 1409.77 1124.51C1407.58 1127.44 1405.91 1130.86 1404.77 1134.77C1403.71 1138.59 1403.18 1142.74 1403.18 1147.22ZM1507.06 1159.3V1156.74C1507.06 1147.06 1508.45 1138.14 1511.21 1130.01C1513.98 1121.79 1518.01 1114.67 1523.3 1108.64C1528.59 1102.62 1535.06 1097.94 1542.71 1094.61C1550.36 1091.19 1559.07 1089.48 1568.83 1089.48C1578.76 1089.48 1587.55 1091.19 1595.2 1094.61C1602.93 1097.94 1609.44 1102.62 1614.73 1108.64C1620.02 1114.67 1624.05 1121.79 1626.82 1130.01C1629.58 1138.14 1630.97 1147.06 1630.97 1156.74V1159.3C1630.97 1168.91 1629.58 1177.82 1626.82 1186.04C1624.05 1194.17 1620.02 1201.29 1614.73 1207.4C1609.44 1213.42 1602.97 1218.1 1595.32 1221.44C1587.67 1224.77 1578.92 1226.44 1569.08 1226.44C1559.31 1226.44 1550.56 1224.77 1542.83 1221.44C1535.1 1218.1 1528.59 1213.42 1523.3 1207.4C1518.01 1201.29 1513.98 1194.17 1511.21 1186.04C1508.45 1177.82 1507.06 1168.91 1507.06 1159.3ZM1539.29 1156.74V1159.3C1539.29 1165.08 1539.86 1170.49 1541 1175.54C1542.14 1180.58 1543.89 1185.02 1546.25 1188.84C1548.61 1192.67 1551.66 1195.68 1555.4 1197.88C1559.23 1199.99 1563.79 1201.05 1569.08 1201.05C1574.28 1201.05 1578.76 1199.99 1582.5 1197.88C1586.25 1195.68 1589.3 1192.67 1591.66 1188.84C1594.1 1185.02 1595.89 1180.58 1597.03 1175.54C1598.17 1170.49 1598.74 1165.08 1598.74 1159.3V1156.74C1598.74 1151.04 1598.17 1145.71 1597.03 1140.75C1595.89 1135.7 1594.1 1131.27 1591.66 1127.44C1589.3 1123.54 1586.21 1120.48 1582.38 1118.29C1578.64 1116.01 1574.12 1114.87 1568.83 1114.87C1563.62 1114.87 1559.15 1116.01 1555.4 1118.29C1551.66 1120.48 1548.61 1123.54 1546.25 1127.44C1543.89 1131.27 1542.14 1135.7 1541 1140.75C1539.86 1145.71 1539.29 1151.04 1539.29 1156.74ZM1727.04 1187.87C1727.04 1185.1 1726.3 1182.62 1724.84 1180.42C1723.37 1178.22 1720.61 1176.23 1716.54 1174.44C1712.55 1172.57 1706.69 1170.82 1698.96 1169.19C1692.12 1167.73 1685.82 1165.89 1680.04 1163.7C1674.26 1161.5 1669.3 1158.86 1665.15 1155.76C1661 1152.59 1657.74 1148.89 1655.38 1144.65C1653.1 1140.34 1651.96 1135.38 1651.96 1129.76C1651.96 1124.31 1653.14 1119.18 1655.5 1114.38C1657.86 1109.5 1661.28 1105.23 1665.76 1101.56C1670.23 1097.82 1675.68 1094.89 1682.11 1092.77C1688.54 1090.58 1695.79 1089.48 1703.84 1089.48C1715.07 1089.48 1724.72 1091.31 1732.77 1094.97C1740.91 1098.63 1747.14 1103.68 1751.45 1110.11C1755.76 1116.46 1757.92 1123.62 1757.92 1131.59H1725.69C1725.69 1128.09 1724.88 1124.92 1723.25 1122.07C1721.7 1119.22 1719.3 1116.94 1716.05 1115.24C1712.79 1113.44 1708.68 1112.55 1703.72 1112.55C1699.24 1112.55 1695.46 1113.28 1692.37 1114.75C1689.36 1116.21 1687.08 1118.12 1685.53 1120.48C1683.99 1122.84 1683.21 1125.45 1683.21 1128.3C1683.21 1130.41 1683.62 1132.33 1684.43 1134.03C1685.33 1135.66 1686.75 1137.17 1688.71 1138.55C1690.66 1139.93 1693.3 1141.2 1696.64 1142.33C1700.06 1143.47 1704.25 1144.57 1709.21 1145.63C1719.06 1147.58 1727.65 1150.19 1734.97 1153.44C1742.38 1156.62 1748.15 1160.85 1752.3 1166.14C1756.45 1171.43 1758.53 1178.18 1758.53 1186.4C1758.53 1192.26 1757.27 1197.63 1754.75 1202.52C1752.22 1207.32 1748.56 1211.51 1743.76 1215.09C1738.96 1218.67 1733.22 1221.48 1726.55 1223.51C1719.87 1225.46 1712.35 1226.44 1703.96 1226.44C1691.84 1226.44 1681.58 1224.28 1673.2 1219.97C1664.82 1215.58 1658.47 1210.04 1654.16 1203.37C1649.85 1196.62 1647.69 1189.62 1647.69 1182.37H1678.57C1678.82 1187.5 1680.2 1191.61 1682.72 1194.7C1685.25 1197.8 1688.42 1200.03 1692.25 1201.42C1696.15 1202.72 1700.26 1203.37 1704.57 1203.37C1709.46 1203.37 1713.57 1202.72 1716.9 1201.42C1720.24 1200.03 1722.76 1198.2 1724.47 1195.92C1726.18 1193.56 1727.04 1190.88 1727.04 1187.87ZM1845.57 1091.92V1115.11H1769.88V1091.92H1845.57ZM1790.15 1059.45H1822.49V1185.91C1822.49 1189.82 1823.02 1192.83 1824.08 1194.95C1825.14 1197.06 1826.73 1198.49 1828.84 1199.22C1830.96 1199.95 1833.48 1200.32 1836.41 1200.32C1838.53 1200.32 1840.48 1200.2 1842.27 1199.95C1844.06 1199.71 1845.57 1199.46 1846.79 1199.22L1846.91 1223.39C1844.22 1224.28 1841.17 1225.02 1837.75 1225.59C1834.42 1226.16 1830.63 1226.44 1826.4 1226.44C1819.16 1226.44 1812.81 1225.22 1807.36 1222.78C1801.9 1220.26 1797.67 1216.23 1794.66 1210.69C1791.65 1205.08 1790.15 1197.67 1790.15 1188.48V1059.45ZM1963.49 1091.92V1224H1931.14V1091.92H1963.49ZM1928.94 1057.37C1928.94 1052.57 1930.57 1048.58 1933.82 1045.41C1937.16 1042.24 1941.63 1040.65 1947.25 1040.65C1952.87 1040.65 1957.3 1042.24 1960.56 1045.41C1963.89 1048.58 1965.56 1052.57 1965.56 1057.37C1965.56 1062.09 1963.89 1066.04 1960.56 1069.21C1957.3 1072.39 1952.87 1073.98 1947.25 1073.98C1941.63 1073.98 1937.16 1072.39 1933.82 1069.21C1930.57 1066.04 1928.94 1062.09 1928.94 1057.37ZM2026.35 1119.02V1224H1994.12V1091.92H2024.52L2026.35 1119.02ZM2021.59 1153.2H2011.7C2011.7 1144 2012.8 1135.54 2015 1127.81C2017.28 1120.08 2020.61 1113.36 2025.01 1107.67C2029.4 1101.89 2034.82 1097.41 2041.24 1094.24C2047.75 1091.07 2055.28 1089.48 2063.83 1089.48C2069.77 1089.48 2075.22 1090.37 2080.18 1092.16C2085.15 1093.87 2089.42 1096.6 2093 1100.34C2096.66 1104 2099.47 1108.81 2101.42 1114.75C2103.38 1120.61 2104.35 1127.65 2104.35 1135.87V1224H2072.13V1139.16C2072.13 1132.98 2071.23 1128.13 2069.44 1124.63C2067.73 1121.14 2065.25 1118.69 2062 1117.31C2058.74 1115.85 2054.83 1115.11 2050.28 1115.11C2045.23 1115.11 2040.88 1116.13 2037.22 1118.17C2033.64 1120.12 2030.66 1122.84 2028.3 1126.34C2026.03 1129.84 2024.32 1133.87 2023.18 1138.43C2022.12 1142.99 2021.59 1147.91 2021.59 1153.2ZM2101.91 1147.22L2088.61 1149.66C2088.69 1141.36 2089.83 1133.59 2092.03 1126.34C2094.22 1119.02 2097.44 1112.63 2101.67 1107.18C2105.98 1101.64 2111.31 1097.33 2117.66 1094.24C2124.09 1091.07 2131.49 1089.48 2139.88 1089.48C2146.39 1089.48 2152.25 1090.41 2157.46 1092.29C2162.74 1094.08 2167.26 1096.97 2171 1100.95C2174.75 1104.86 2177.6 1109.95 2179.55 1116.21C2181.58 1122.48 2182.6 1130.13 2182.6 1139.16V1224H2150.13V1139.04C2150.13 1132.61 2149.24 1127.69 2147.45 1124.27C2145.74 1120.85 2143.25 1118.49 2140 1117.19C2136.74 1115.81 2132.92 1115.11 2128.52 1115.11C2124.05 1115.11 2120.14 1115.97 2116.81 1117.68C2113.55 1119.3 2110.78 1121.58 2108.5 1124.51C2106.31 1127.44 2104.64 1130.86 2103.5 1134.77C2102.44 1138.59 2101.91 1142.74 2101.91 1147.22ZM2243.76 1117.31V1274.78H2211.41V1091.92H2241.32L2243.76 1117.31ZM2328.6 1156.62V1159.18C2328.6 1168.78 2327.46 1177.69 2325.18 1185.91C2322.98 1194.05 2319.73 1201.17 2315.41 1207.28C2311.1 1213.3 2305.73 1218.02 2299.3 1221.44C2292.95 1224.77 2285.63 1226.44 2277.33 1226.44C2269.19 1226.44 2262.11 1224.9 2256.09 1221.8C2250.07 1218.63 2244.98 1214.15 2240.83 1208.38C2236.68 1202.6 2233.34 1195.88 2230.82 1188.23C2228.38 1180.5 2226.55 1172.08 2225.33 1162.96V1154.79C2226.55 1145.1 2228.38 1136.31 2230.82 1128.42C2233.34 1120.44 2236.68 1113.57 2240.83 1107.79C2244.98 1101.93 2250.03 1097.41 2255.97 1094.24C2261.99 1091.07 2269.03 1089.48 2277.08 1089.48C2285.47 1089.48 2292.83 1091.07 2299.18 1094.24C2305.61 1097.41 2311.02 1101.97 2315.41 1107.91C2319.81 1113.85 2323.1 1120.93 2325.3 1129.15C2327.5 1137.37 2328.6 1146.53 2328.6 1156.62ZM2296.25 1159.18V1156.62C2296.25 1150.76 2295.72 1145.35 2294.66 1140.38C2293.6 1135.34 2291.98 1130.94 2289.78 1127.2C2287.58 1123.37 2284.73 1120.4 2281.23 1118.29C2277.74 1116.17 2273.5 1115.11 2268.54 1115.11C2263.57 1115.11 2259.3 1115.93 2255.72 1117.55C2252.14 1119.18 2249.21 1121.5 2246.93 1124.51C2244.65 1127.52 2242.86 1131.1 2241.56 1135.25C2240.34 1139.32 2239.53 1143.84 2239.12 1148.8V1169.07C2239.85 1175.09 2241.28 1180.5 2243.39 1185.3C2245.51 1190.11 2248.6 1193.93 2252.67 1196.78C2256.82 1199.63 2262.19 1201.05 2268.78 1201.05C2273.75 1201.05 2277.98 1199.95 2281.48 1197.75C2284.98 1195.56 2287.83 1192.55 2290.02 1188.72C2292.22 1184.82 2293.81 1180.34 2294.78 1175.29C2295.76 1170.25 2296.25 1164.88 2296.25 1159.18ZM2346.42 1159.3V1156.74C2346.42 1147.06 2347.8 1138.14 2350.57 1130.01C2353.34 1121.79 2357.37 1114.67 2362.66 1108.64C2367.94 1102.62 2374.41 1097.94 2382.06 1094.61C2389.71 1091.19 2398.42 1089.48 2408.19 1089.48C2418.12 1089.48 2426.9 1091.19 2434.55 1094.61C2442.29 1097.94 2448.8 1102.62 2454.09 1108.64C2459.38 1114.67 2463.4 1121.79 2466.17 1130.01C2468.94 1138.14 2470.32 1147.06 2470.32 1156.74V1159.3C2470.32 1168.91 2468.94 1177.82 2466.17 1186.04C2463.4 1194.17 2459.38 1201.29 2454.09 1207.4C2448.8 1213.42 2442.33 1218.1 2434.68 1221.44C2427.03 1224.77 2418.28 1226.44 2408.43 1226.44C2398.67 1226.44 2389.92 1224.77 2382.19 1221.44C2374.46 1218.1 2367.94 1213.42 2362.66 1207.4C2357.37 1201.29 2353.34 1194.17 2350.57 1186.04C2347.8 1177.82 2346.42 1168.91 2346.42 1159.3ZM2378.65 1156.74V1159.3C2378.65 1165.08 2379.22 1170.49 2380.36 1175.54C2381.49 1180.58 2383.24 1185.02 2385.6 1188.84C2387.96 1192.67 2391.02 1195.68 2394.76 1197.88C2398.58 1199.99 2403.14 1201.05 2408.43 1201.05C2413.64 1201.05 2418.12 1199.99 2421.86 1197.88C2425.6 1195.68 2428.65 1192.67 2431.01 1188.84C2433.46 1185.02 2435.25 1180.58 2436.39 1175.54C2437.53 1170.49 2438.09 1165.08 2438.09 1159.3V1156.74C2438.09 1151.04 2437.53 1145.71 2436.39 1140.75C2435.25 1135.7 2433.46 1131.27 2431.01 1127.44C2428.65 1123.54 2425.56 1120.48 2421.74 1118.29C2417.99 1116.01 2413.48 1114.87 2408.19 1114.87C2402.98 1114.87 2398.5 1116.01 2394.76 1118.29C2391.02 1120.48 2387.96 1123.54 2385.6 1127.44C2383.24 1131.27 2381.49 1135.7 2380.36 1140.75C2379.22 1145.71 2378.65 1151.04 2378.65 1156.74ZM2525.99 1118.9V1224H2493.76V1091.92H2524.28L2525.99 1118.9ZM2566.15 1091.07L2565.66 1121.09C2563.87 1120.77 2561.83 1120.53 2559.55 1120.36C2557.36 1120.2 2555.28 1120.12 2553.33 1120.12C2548.36 1120.12 2544.01 1120.81 2540.27 1122.19C2536.52 1123.5 2533.39 1125.41 2530.87 1127.93C2528.43 1130.45 2526.56 1133.55 2525.25 1137.21C2523.95 1140.79 2523.22 1144.86 2523.06 1149.42L2516.1 1148.56C2516.1 1140.18 2516.95 1132.41 2518.66 1125.25C2520.37 1118.08 2522.85 1111.82 2526.11 1106.45C2529.36 1101.08 2533.43 1096.92 2538.31 1094C2543.28 1090.98 2548.98 1089.48 2555.4 1089.48C2557.19 1089.48 2559.11 1089.64 2561.14 1089.97C2563.26 1090.21 2564.93 1090.58 2566.15 1091.07ZM2652.45 1091.92V1115.11H2576.77V1091.92H2652.45ZM2597.03 1059.45H2629.38V1185.91C2629.38 1189.82 2629.91 1192.83 2630.97 1194.95C2632.02 1197.06 2633.61 1198.49 2635.73 1199.22C2637.84 1199.95 2640.37 1200.32 2643.29 1200.32C2645.41 1200.32 2647.36 1200.2 2649.15 1199.95C2650.94 1199.71 2652.45 1199.46 2653.67 1199.22L2653.79 1223.39C2651.11 1224.28 2648.06 1225.02 2644.64 1225.59C2641.3 1226.16 2637.52 1226.44 2633.29 1226.44C2626.04 1226.44 2619.69 1225.22 2614.24 1222.78C2608.79 1220.26 2604.56 1216.23 2601.55 1210.69C2598.54 1205.08 2597.03 1197.67 2597.03 1188.48V1059.45ZM2746.69 1195.92V1135.01C2746.69 1130.53 2745.92 1126.67 2744.37 1123.41C2742.82 1120.16 2740.46 1117.64 2737.29 1115.85C2734.12 1114.06 2730.09 1113.16 2725.2 1113.16C2720.89 1113.16 2717.11 1113.89 2713.85 1115.36C2710.68 1116.82 2708.24 1118.9 2706.53 1121.58C2704.82 1124.19 2703.96 1127.2 2703.96 1130.62H2671.62C2671.62 1125.16 2672.92 1120 2675.52 1115.11C2678.13 1110.15 2681.83 1105.75 2686.63 1101.93C2691.51 1098.02 2697.33 1094.97 2704.09 1092.77C2710.92 1090.58 2718.57 1089.48 2727.04 1089.48C2737.04 1089.48 2745.96 1091.19 2753.77 1094.61C2761.66 1097.94 2767.85 1102.99 2772.32 1109.74C2776.88 1116.5 2779.16 1125 2779.16 1135.25V1192.87C2779.16 1199.46 2779.57 1205.12 2780.38 1209.84C2781.28 1214.48 2782.58 1218.51 2784.29 1221.92V1224H2751.45C2749.9 1220.66 2748.72 1216.43 2747.91 1211.3C2747.1 1206.1 2746.69 1200.97 2746.69 1195.92ZM2751.21 1143.56L2751.45 1162.72H2731.06C2726.02 1162.72 2721.58 1163.25 2717.76 1164.31C2713.93 1165.28 2710.8 1166.75 2708.36 1168.7C2705.92 1170.57 2704.09 1172.85 2702.87 1175.54C2701.64 1178.14 2701.03 1181.11 2701.03 1184.45C2701.03 1187.7 2701.77 1190.63 2703.23 1193.24C2704.78 1195.84 2706.97 1197.92 2709.82 1199.46C2712.75 1200.93 2716.17 1201.66 2720.08 1201.66C2725.77 1201.66 2730.74 1200.52 2734.97 1198.24C2739.2 1195.88 2742.5 1193.03 2744.86 1189.7C2747.22 1186.36 2748.48 1183.19 2748.64 1180.18L2757.92 1194.09C2756.78 1197.43 2755.07 1200.97 2752.79 1204.71C2750.51 1208.46 2747.58 1211.96 2744 1215.21C2740.42 1218.47 2736.11 1221.15 2731.06 1223.27C2726.02 1225.38 2720.16 1226.44 2713.49 1226.44C2704.94 1226.44 2697.29 1224.73 2690.54 1221.31C2683.78 1217.9 2678.45 1213.22 2674.54 1207.28C2670.64 1201.34 2668.69 1194.58 2668.69 1187.01C2668.69 1180.01 2669.99 1173.83 2672.59 1168.46C2675.2 1163.09 2679.06 1158.57 2684.19 1154.91C2689.32 1151.16 2695.66 1148.36 2703.23 1146.49C2710.88 1144.53 2719.63 1143.56 2729.48 1143.56H2751.21ZM2839.83 1120.12V1224H2807.6V1091.92H2837.88L2839.83 1120.12ZM2834.7 1153.2H2825.18C2825.26 1143.6 2826.56 1134.89 2829.09 1127.08C2831.61 1119.26 2835.15 1112.55 2839.71 1106.93C2844.34 1101.32 2849.84 1097.01 2856.19 1094C2862.53 1090.98 2869.61 1089.48 2877.43 1089.48C2883.77 1089.48 2889.51 1090.37 2894.64 1092.16C2899.76 1093.95 2904.16 1096.8 2907.82 1100.71C2911.56 1104.62 2914.41 1109.74 2916.37 1116.09C2918.4 1122.36 2919.42 1130.09 2919.42 1139.28V1224H2886.95V1139.04C2886.95 1133.02 2886.05 1128.26 2884.26 1124.76C2882.55 1121.26 2880.03 1118.78 2876.69 1117.31C2873.44 1115.85 2869.41 1115.11 2864.61 1115.11C2859.64 1115.11 2855.29 1116.13 2851.55 1118.17C2847.88 1120.12 2844.79 1122.84 2842.27 1126.34C2839.83 1129.84 2837.96 1133.87 2836.65 1138.43C2835.35 1142.99 2834.7 1147.91 2834.7 1153.2ZM3010.36 1091.92V1115.11H2934.68V1091.92H3010.36ZM2954.94 1059.45H2987.29V1185.91C2987.29 1189.82 2987.82 1192.83 2988.88 1194.95C2989.93 1197.06 2991.52 1198.49 2993.64 1199.22C2995.75 1199.95 2998.28 1200.32 3001.21 1200.32C3003.32 1200.32 3005.27 1200.2 3007.06 1199.95C3008.85 1199.71 3010.36 1199.46 3011.58 1199.22L3011.7 1223.39C3009.02 1224.28 3005.97 1225.02 3002.55 1225.59C2999.21 1226.16 2995.43 1226.44 2991.2 1226.44C2983.95 1226.44 2977.6 1225.22 2972.15 1222.78C2966.7 1220.26 2962.47 1216.23 2959.46 1210.69C2956.45 1205.08 2954.94 1197.67 2954.94 1188.48V1059.45ZM3156.6 1091.92V1115.11H3080.92V1091.92H3156.6ZM3101.18 1059.45H3133.53V1185.91C3133.53 1189.82 3134.06 1192.83 3135.12 1194.95C3136.17 1197.06 3137.76 1198.49 3139.88 1199.22C3141.99 1199.95 3144.52 1200.32 3147.45 1200.32C3149.56 1200.32 3151.51 1200.2 3153.3 1199.95C3155.1 1199.71 3156.6 1199.46 3157.82 1199.22L3157.94 1223.39C3155.26 1224.28 3152.21 1225.02 3148.79 1225.59C3145.45 1226.16 3141.67 1226.44 3137.44 1226.44C3130.19 1226.44 3123.85 1225.22 3118.39 1222.78C3112.94 1220.26 3108.71 1216.23 3105.7 1210.69C3102.69 1205.08 3101.18 1197.67 3101.18 1188.48V1059.45ZM3209.7 1036.5V1224H3177.35V1036.5H3209.7ZM3204.57 1153.2H3195.05C3195.05 1144 3196.27 1135.54 3198.71 1127.81C3201.16 1120.08 3204.61 1113.36 3209.09 1107.67C3213.57 1101.89 3218.9 1097.41 3225.08 1094.24C3231.35 1091.07 3238.27 1089.48 3245.83 1089.48C3252.34 1089.48 3258.24 1090.41 3263.53 1092.29C3268.91 1094.08 3273.5 1096.97 3277.33 1100.95C3281.15 1104.94 3284.08 1110.15 3286.12 1116.58C3288.23 1122.93 3289.29 1130.66 3289.29 1139.77V1224H3256.82V1139.53C3256.82 1133.42 3255.93 1128.62 3254.13 1125.12C3252.34 1121.54 3249.78 1118.98 3246.44 1117.43C3243.19 1115.89 3239.16 1115.11 3234.36 1115.11C3229.15 1115.11 3224.68 1116.13 3220.93 1118.17C3217.19 1120.12 3214.1 1122.84 3211.65 1126.34C3209.29 1129.84 3207.5 1133.87 3206.28 1138.43C3205.14 1142.99 3204.57 1147.91 3204.57 1153.2ZM3351.91 1091.92V1224H3319.56V1091.92H3351.91ZM3317.37 1057.37C3317.37 1052.57 3318.99 1048.58 3322.25 1045.41C3325.59 1042.24 3330.06 1040.65 3335.68 1040.65C3341.29 1040.65 3345.73 1042.24 3348.98 1045.41C3352.32 1048.58 3353.99 1052.57 3353.99 1057.37C3353.99 1062.09 3352.32 1066.04 3348.98 1069.21C3345.73 1072.39 3341.29 1073.98 3335.68 1073.98C3330.06 1073.98 3325.59 1072.39 3322.25 1069.21C3318.99 1066.04 3317.37 1062.09 3317.37 1057.37ZM3414.29 1120.12V1224H3382.06V1091.92H3412.34L3414.29 1120.12ZM3409.16 1153.2H3399.64C3399.72 1143.6 3401.03 1134.89 3403.55 1127.08C3406.07 1119.26 3409.61 1112.55 3414.17 1106.93C3418.81 1101.32 3424.3 1097.01 3430.65 1094C3437 1090.98 3444.08 1089.48 3451.89 1089.48C3458.24 1089.48 3463.97 1090.37 3469.1 1092.16C3474.23 1093.95 3478.62 1096.8 3482.28 1100.71C3486.03 1104.62 3488.88 1109.74 3490.83 1116.09C3492.86 1122.36 3493.88 1130.09 3493.88 1139.28V1224H3461.41V1139.04C3461.41 1133.02 3460.51 1128.26 3458.72 1124.76C3457.02 1121.26 3454.49 1118.78 3451.16 1117.31C3447.9 1115.85 3443.87 1115.11 3439.07 1115.11C3434.11 1115.11 3429.75 1116.13 3426.01 1118.17C3422.35 1120.12 3419.26 1122.84 3416.73 1126.34C3414.29 1129.84 3412.42 1133.87 3411.12 1138.43C3409.82 1142.99 3409.16 1147.91 3409.16 1153.2ZM3606.31 1091.92H3635.6V1219.97C3635.6 1231.93 3633 1242.07 3627.79 1250.37C3622.67 1258.75 3615.46 1265.1 3606.19 1269.41C3596.91 1273.8 3586.13 1276 3573.84 1276C3568.55 1276 3562.81 1275.27 3556.62 1273.8C3550.52 1272.34 3544.62 1270.02 3538.92 1266.85C3533.31 1263.75 3528.63 1259.73 3524.89 1254.76L3539.41 1235.72C3543.81 1240.85 3548.77 1244.71 3554.31 1247.32C3559.84 1250 3565.82 1251.34 3572.25 1251.34C3578.76 1251.34 3584.29 1250.12 3588.85 1247.68C3593.49 1245.32 3597.03 1241.82 3599.47 1237.18C3601.99 1232.63 3603.26 1227.01 3603.26 1220.34V1122.07L3606.31 1091.92ZM3517.07 1159.55V1156.98C3517.07 1146.89 3518.29 1137.74 3520.74 1129.52C3523.18 1121.22 3526.68 1114.1 3531.23 1108.16C3535.87 1102.21 3541.45 1097.62 3547.96 1094.36C3554.55 1091.11 3561.96 1089.48 3570.17 1089.48C3578.88 1089.48 3586.21 1091.07 3592.15 1094.24C3598.17 1097.41 3603.13 1101.93 3607.04 1107.79C3611.03 1113.65 3614.12 1120.61 3616.32 1128.66C3618.6 1136.64 3620.35 1145.43 3621.57 1155.03V1161.99C3620.43 1171.35 3618.6 1179.93 3616.07 1187.75C3613.63 1195.56 3610.38 1202.39 3606.31 1208.25C3602.24 1214.03 3597.19 1218.51 3591.17 1221.68C3585.15 1224.85 3578.07 1226.44 3569.93 1226.44C3561.79 1226.44 3554.47 1224.77 3547.96 1221.44C3541.45 1218.1 3535.87 1213.42 3531.23 1207.4C3526.68 1201.38 3523.18 1194.3 3520.74 1186.16C3518.29 1178.02 3517.07 1169.15 3517.07 1159.55ZM3549.3 1156.98V1159.55C3549.3 1165.24 3549.87 1170.57 3551.01 1175.54C3552.15 1180.5 3553.9 1184.9 3556.26 1188.72C3558.62 1192.47 3561.59 1195.39 3565.17 1197.51C3568.75 1199.63 3573.02 1200.68 3577.99 1200.68C3584.66 1200.68 3590.11 1199.3 3594.34 1196.53C3598.66 1193.69 3601.91 1189.82 3604.11 1184.94C3606.39 1179.97 3607.85 1174.4 3608.5 1168.21V1149.05C3608.1 1144.17 3607.2 1139.65 3605.82 1135.5C3604.52 1131.35 3602.69 1127.77 3600.33 1124.76C3597.97 1121.75 3594.96 1119.39 3591.29 1117.68C3587.63 1115.97 3583.28 1115.11 3578.23 1115.11C3573.35 1115.11 3569.08 1116.21 3565.41 1118.41C3561.75 1120.53 3558.74 1123.5 3556.38 1127.32C3554.02 1131.15 3552.23 1135.58 3551.01 1140.63C3549.87 1145.67 3549.3 1151.12 3549.3 1156.98ZM3721.18 1159.3V1156.74C3721.18 1147.06 3722.56 1138.14 3725.33 1130.01C3728.09 1121.79 3732.12 1114.67 3737.41 1108.64C3742.7 1102.62 3749.17 1097.94 3756.82 1094.61C3764.47 1091.19 3773.18 1089.48 3782.94 1089.48C3792.87 1089.48 3801.66 1091.19 3809.31 1094.61C3817.04 1097.94 3823.55 1102.62 3828.84 1108.64C3834.13 1114.67 3838.16 1121.79 3840.93 1130.01C3843.69 1138.14 3845.08 1147.06 3845.08 1156.74V1159.3C3845.08 1168.91 3843.69 1177.82 3840.93 1186.04C3838.16 1194.17 3834.13 1201.29 3828.84 1207.4C3823.55 1213.42 3817.08 1218.1 3809.43 1221.44C3801.78 1224.77 3793.03 1226.44 3783.19 1226.44C3773.42 1226.44 3764.67 1224.77 3756.94 1221.44C3749.21 1218.1 3742.7 1213.42 3737.41 1207.4C3732.12 1201.29 3728.09 1194.17 3725.33 1186.04C3722.56 1177.82 3721.18 1168.91 3721.18 1159.3ZM3753.4 1156.74V1159.3C3753.4 1165.08 3753.97 1170.49 3755.11 1175.54C3756.25 1180.58 3758 1185.02 3760.36 1188.84C3762.72 1192.67 3765.77 1195.68 3769.52 1197.88C3773.34 1199.99 3777.9 1201.05 3783.19 1201.05C3788.4 1201.05 3792.87 1199.99 3796.62 1197.88C3800.36 1195.68 3803.41 1192.67 3805.77 1188.84C3808.21 1185.02 3810 1180.58 3811.14 1175.54C3812.28 1170.49 3812.85 1165.08 3812.85 1159.3V1156.74C3812.85 1151.04 3812.28 1145.71 3811.14 1140.75C3810 1135.7 3808.21 1131.27 3805.77 1127.44C3803.41 1123.54 3800.32 1120.48 3796.49 1118.29C3792.75 1116.01 3788.23 1114.87 3782.94 1114.87C3777.74 1114.87 3773.26 1116.01 3769.52 1118.29C3765.77 1120.48 3762.72 1123.54 3760.36 1127.44C3758 1131.27 3756.25 1135.7 3755.11 1140.75C3753.97 1145.71 3753.4 1151.04 3753.4 1156.74ZM3910.75 1224H3878.28V1079.71C3878.28 1069.78 3880.19 1061.44 3884.02 1054.69C3887.84 1047.85 3893.29 1042.68 3900.38 1039.19C3907.46 1035.69 3915.8 1033.94 3925.4 1033.94C3928.57 1033.94 3931.58 1034.14 3934.43 1034.55C3937.36 1034.95 3940.25 1035.52 3943.1 1036.26L3942.49 1060.79C3940.94 1060.39 3939.23 1060.1 3937.36 1059.94C3935.57 1059.77 3933.58 1059.69 3931.38 1059.69C3926.99 1059.69 3923.24 1060.47 3920.15 1062.01C3917.06 1063.56 3914.7 1065.84 3913.07 1068.85C3911.52 1071.78 3910.75 1075.4 3910.75 1079.71V1224ZM3937.48 1091.92V1115.11H3858.38V1091.92H3937.48ZM4092.39 1195.92V1135.01C4092.39 1130.53 4091.62 1126.67 4090.07 1123.41C4088.53 1120.16 4086.17 1117.64 4082.99 1115.85C4079.82 1114.06 4075.79 1113.16 4070.91 1113.16C4066.59 1113.16 4062.81 1113.89 4059.55 1115.36C4056.38 1116.82 4053.94 1118.9 4052.23 1121.58C4050.52 1124.19 4049.67 1127.2 4049.67 1130.62H4017.32C4017.32 1125.16 4018.62 1120 4021.22 1115.11C4023.83 1110.15 4027.53 1105.75 4032.33 1101.93C4037.22 1098.02 4043.03 1094.97 4049.79 1092.77C4056.62 1090.58 4064.27 1089.48 4072.74 1089.48C4082.75 1089.48 4091.66 1091.19 4099.47 1094.61C4107.37 1097.94 4113.55 1102.99 4118.03 1109.74C4122.58 1116.5 4124.86 1125 4124.86 1135.25V1192.87C4124.86 1199.46 4125.27 1205.12 4126.08 1209.84C4126.98 1214.48 4128.28 1218.51 4129.99 1221.92V1224H4097.15C4095.61 1220.66 4094.43 1216.43 4093.61 1211.3C4092.8 1206.1 4092.39 1200.97 4092.39 1195.92ZM4096.91 1143.56L4097.15 1162.72H4076.77C4071.72 1162.72 4067.29 1163.25 4063.46 1164.31C4059.64 1165.28 4056.5 1166.75 4054.06 1168.7C4051.62 1170.57 4049.79 1172.85 4048.57 1175.54C4047.35 1178.14 4046.74 1181.11 4046.74 1184.45C4046.74 1187.7 4047.47 1190.63 4048.93 1193.24C4050.48 1195.84 4052.68 1197.92 4055.53 1199.46C4058.46 1200.93 4061.87 1201.66 4065.78 1201.66C4071.48 1201.66 4076.44 1200.52 4080.67 1198.24C4084.9 1195.88 4088.2 1193.03 4090.56 1189.7C4092.92 1186.36 4094.18 1183.19 4094.34 1180.18L4103.62 1194.09C4102.48 1197.43 4100.77 1200.97 4098.5 1204.71C4096.22 1208.46 4093.29 1211.96 4089.71 1215.21C4086.13 1218.47 4081.81 1221.15 4076.77 1223.27C4071.72 1225.38 4065.86 1226.44 4059.19 1226.44C4050.64 1226.44 4042.99 1224.73 4036.24 1221.31C4029.48 1217.9 4024.15 1213.22 4020.25 1207.28C4016.34 1201.34 4014.39 1194.58 4014.39 1187.01C4014.39 1180.01 4015.69 1173.83 4018.29 1168.46C4020.9 1163.09 4024.76 1158.57 4029.89 1154.91C4035.02 1151.16 4041.37 1148.36 4048.93 1146.49C4056.58 1144.53 4065.33 1143.56 4075.18 1143.56H4096.91ZM4188.09 1036.5V1224H4155.75V1036.5H4188.09ZM4253.04 1036.5V1224H4220.69V1036.5H4253.04ZM4314.19 1194.95L4313.95 1217.29C4313.95 1225.99 4311.79 1234.82 4307.48 1243.78C4303.17 1252.73 4297.59 1260.13 4290.76 1265.99L4273.67 1256.59C4275.86 1252.93 4277.9 1249.23 4279.77 1245.48C4281.72 1241.74 4283.27 1237.67 4284.41 1233.28C4285.63 1228.96 4286.24 1224.12 4286.24 1218.75V1194.95H4314.19ZM464.706 1384.92V1517H432.357V1384.92H464.706ZM430.16 1350.37C430.16 1345.57 431.788 1341.58 435.043 1338.41C438.38 1335.24 442.855 1333.65 448.471 1333.65C454.086 1333.65 458.521 1335.24 461.776 1338.41C465.113 1341.58 466.781 1345.57 466.781 1350.37C466.781 1355.09 465.113 1359.04 461.776 1362.21C458.521 1365.39 454.086 1366.98 448.471 1366.98C442.855 1366.98 438.38 1365.39 435.043 1362.21C431.788 1359.04 430.16 1355.09 430.16 1350.37ZM568.1 1480.87C568.1 1478.1 567.367 1475.62 565.902 1473.42C564.438 1471.22 561.671 1469.23 557.602 1467.44C553.614 1465.57 547.755 1463.82 540.023 1462.19C533.188 1460.73 526.881 1458.89 521.103 1456.7C515.325 1454.5 510.36 1451.86 506.21 1448.76C502.06 1445.59 498.804 1441.89 496.444 1437.65C494.166 1433.34 493.026 1428.38 493.026 1422.76C493.026 1417.31 494.206 1412.18 496.566 1407.38C498.926 1402.5 502.344 1398.23 506.82 1394.56C511.296 1390.82 516.749 1387.89 523.178 1385.77C529.607 1383.58 536.85 1382.48 544.906 1382.48C556.137 1382.48 565.78 1384.31 573.837 1387.97C581.975 1391.63 588.201 1396.68 592.514 1403.11C596.827 1409.46 598.983 1416.62 598.983 1424.59H566.757C566.757 1421.09 565.943 1417.92 564.315 1415.07C562.769 1412.22 560.368 1409.94 557.113 1408.24C553.858 1406.44 549.748 1405.55 544.784 1405.55C540.308 1405.55 536.524 1406.28 533.432 1407.75C530.421 1409.21 528.142 1411.12 526.596 1413.48C525.049 1415.84 524.276 1418.45 524.276 1421.3C524.276 1423.41 524.683 1425.33 525.497 1427.03C526.392 1428.66 527.816 1430.17 529.77 1431.55C531.723 1432.93 534.368 1434.2 537.704 1435.33C541.122 1436.47 545.313 1437.57 550.277 1438.63C560.124 1440.58 568.71 1443.19 576.034 1446.44C583.44 1449.62 589.218 1453.85 593.368 1459.14C597.519 1464.43 599.594 1471.18 599.594 1479.4C599.594 1485.26 598.332 1490.63 595.81 1495.52C593.287 1500.32 589.625 1504.51 584.823 1508.09C580.022 1511.67 574.285 1514.48 567.611 1516.51C560.938 1518.46 553.41 1519.44 545.028 1519.44C532.903 1519.44 522.649 1517.28 514.267 1512.97C505.884 1508.58 499.537 1503.04 495.224 1496.37C490.91 1489.62 488.754 1482.62 488.754 1475.37H519.638C519.882 1480.5 521.265 1484.61 523.788 1487.7C526.311 1490.8 529.485 1493.03 533.31 1494.42C537.216 1495.72 541.326 1496.37 545.639 1496.37C550.521 1496.37 554.631 1495.72 557.968 1494.42C561.304 1493.03 563.827 1491.2 565.536 1488.92C567.245 1486.56 568.1 1483.88 568.1 1480.87ZM748.886 1384.92V1408.11H673.202V1384.92H748.886ZM693.466 1352.45H725.814V1478.91C725.814 1482.82 726.343 1485.83 727.401 1487.95C728.459 1490.06 730.046 1491.49 732.162 1492.22C734.278 1492.95 736.801 1493.32 739.73 1493.32C741.846 1493.32 743.799 1493.2 745.59 1492.95C747.38 1492.71 748.886 1492.46 750.106 1492.22L750.229 1516.39C747.543 1517.28 744.491 1518.02 741.073 1518.59C737.737 1519.16 733.952 1519.44 729.721 1519.44C722.478 1519.44 716.13 1518.22 710.678 1515.78C705.225 1513.26 700.993 1509.23 697.982 1503.69C694.971 1498.08 693.466 1490.67 693.466 1481.48V1352.45ZM801.986 1329.5V1517H769.638V1329.5H801.986ZM796.859 1446.2H787.338C787.338 1437 788.559 1428.54 791 1420.81C793.441 1413.08 796.9 1406.36 801.376 1400.67C805.852 1394.89 811.182 1390.41 817.367 1387.24C823.633 1384.07 830.551 1382.48 838.119 1382.48C844.63 1382.48 850.53 1383.41 855.819 1385.29C861.19 1387.08 865.788 1389.97 869.613 1393.95C873.438 1397.94 876.368 1403.15 878.402 1409.58C880.518 1415.93 881.576 1423.66 881.576 1432.77V1517H849.105V1432.53C849.105 1426.42 848.21 1421.62 846.42 1418.12C844.63 1414.54 842.066 1411.98 838.729 1410.43C835.474 1408.89 831.446 1408.11 826.645 1408.11C821.436 1408.11 816.96 1409.13 813.217 1411.17C809.473 1413.12 806.381 1415.84 803.939 1419.34C801.579 1422.84 799.789 1426.87 798.568 1431.43C797.429 1435.99 796.859 1440.91 796.859 1446.2ZM982.772 1488.92V1428.01C982.772 1423.53 981.999 1419.67 980.453 1416.41C978.907 1413.16 976.547 1410.64 973.373 1408.85C970.199 1407.06 966.171 1406.16 961.288 1406.16C956.975 1406.16 953.191 1406.89 949.936 1408.36C946.762 1409.82 944.32 1411.9 942.611 1414.58C940.902 1417.19 940.048 1420.2 940.048 1423.62H907.699C907.699 1418.16 909.001 1413 911.605 1408.11C914.21 1403.15 917.912 1398.75 922.714 1394.93C927.597 1391.02 933.415 1387.97 940.17 1385.77C947.006 1383.58 954.656 1382.48 963.119 1382.48C973.129 1382.48 982.04 1384.19 989.853 1387.61C997.746 1390.94 1003.93 1395.99 1008.41 1402.74C1012.96 1409.5 1015.24 1418 1015.24 1428.25V1485.87C1015.24 1492.46 1015.65 1498.12 1016.46 1502.84C1017.36 1507.48 1018.66 1511.51 1020.37 1514.92V1517H987.533C985.987 1513.66 984.807 1509.43 983.993 1504.3C983.179 1499.1 982.772 1493.97 982.772 1488.92ZM987.289 1436.56L987.533 1455.72H967.147C962.102 1455.72 957.667 1456.25 953.842 1457.31C950.017 1458.28 946.884 1459.75 944.442 1461.7C942.001 1463.57 940.17 1465.85 938.949 1468.54C937.729 1471.14 937.118 1474.11 937.118 1477.45C937.118 1480.7 937.851 1483.63 939.315 1486.24C940.862 1488.84 943.059 1490.92 945.907 1492.46C948.837 1493.93 952.255 1494.66 956.161 1494.66C961.858 1494.66 966.822 1493.52 971.054 1491.24C975.285 1488.88 978.581 1486.03 980.941 1482.7C983.301 1479.36 984.563 1476.19 984.726 1473.18L994.003 1487.09C992.864 1490.43 991.155 1493.97 988.876 1497.71C986.597 1501.46 983.668 1504.96 980.087 1508.21C976.506 1511.47 972.193 1514.15 967.147 1516.27C962.102 1518.38 956.243 1519.44 949.569 1519.44C941.024 1519.44 933.375 1517.73 926.62 1514.31C919.866 1510.9 914.535 1506.22 910.629 1500.28C906.723 1494.34 904.77 1487.58 904.77 1480.01C904.77 1473.01 906.072 1466.83 908.676 1461.46C911.28 1456.09 915.146 1451.57 920.272 1447.91C925.399 1444.16 931.747 1441.36 939.315 1439.49C946.965 1437.53 955.714 1436.56 965.561 1436.56H987.289ZM1106.8 1384.92V1408.11H1031.11V1384.92H1106.8ZM1051.38 1352.45H1083.72V1478.91C1083.72 1482.82 1084.25 1485.83 1085.31 1487.95C1086.37 1490.06 1087.96 1491.49 1090.07 1492.22C1092.19 1492.95 1094.71 1493.32 1097.64 1493.32C1099.76 1493.32 1101.71 1493.2 1103.5 1492.95C1105.29 1492.71 1106.8 1492.46 1108.02 1492.22L1108.14 1516.39C1105.45 1517.28 1102.4 1518.02 1098.98 1518.59C1095.65 1519.16 1091.86 1519.44 1087.63 1519.44C1080.39 1519.44 1074.04 1518.22 1068.59 1515.78C1063.14 1513.26 1058.9 1509.23 1055.89 1503.69C1052.88 1498.08 1051.38 1490.67 1051.38 1481.48V1352.45ZM1227.28 1485.26L1256.21 1384.92H1276.72L1270.61 1419.59L1241.44 1517H1223.74L1227.28 1485.26ZM1211.29 1384.92L1233.02 1485.51L1234.97 1517H1214.58L1179.92 1384.92H1211.29ZM1303.57 1484.04L1324.81 1384.92H1356.06L1321.64 1517H1301.25L1303.57 1484.04ZM1279.89 1384.92L1308.58 1484.29L1312.36 1517H1294.66L1265.24 1419.59L1259.26 1384.92H1279.89ZM1434.43 1519.44C1424.42 1519.44 1415.43 1517.81 1407.46 1514.56C1399.48 1511.3 1392.68 1506.79 1387.07 1501.01C1381.54 1495.15 1377.26 1488.35 1374.25 1480.62C1371.32 1472.81 1369.86 1464.43 1369.86 1455.48V1450.59C1369.86 1440.42 1371.32 1431.18 1374.25 1422.88C1377.18 1414.5 1381.33 1407.3 1386.7 1401.28C1392.07 1395.26 1398.5 1390.62 1405.99 1387.36C1413.48 1384.11 1421.74 1382.48 1430.77 1382.48C1440.13 1382.48 1448.39 1384.07 1455.55 1387.24C1462.71 1390.33 1468.69 1394.73 1473.5 1400.42C1478.3 1406.12 1481.92 1412.96 1484.36 1420.93C1486.8 1428.82 1488.02 1437.57 1488.02 1447.18V1460.73H1384.51V1438.51H1456.28V1436.07C1456.12 1430.94 1455.14 1426.26 1453.35 1422.03C1451.56 1417.72 1448.8 1414.3 1445.05 1411.78C1441.31 1409.17 1436.47 1407.87 1430.53 1407.87C1425.72 1407.87 1421.53 1408.93 1417.95 1411.04C1414.45 1413.08 1411.52 1416.01 1409.16 1419.83C1406.89 1423.58 1405.18 1428.05 1404.04 1433.26C1402.9 1438.47 1402.33 1444.25 1402.33 1450.59V1455.48C1402.33 1461.01 1403.06 1466.14 1404.53 1470.86C1406.07 1475.58 1408.31 1479.69 1411.24 1483.19C1414.25 1486.6 1417.83 1489.29 1421.98 1491.24C1426.21 1493.11 1431.01 1494.05 1436.39 1494.05C1443.14 1494.05 1449.24 1492.75 1454.7 1490.14C1460.23 1487.46 1465.03 1483.51 1469.1 1478.3L1485.34 1495.15C1482.57 1499.22 1478.83 1503.12 1474.11 1506.87C1469.47 1510.61 1463.85 1513.66 1457.26 1516.02C1450.67 1518.3 1443.06 1519.44 1434.43 1519.44ZM1603.5 1329.5V1517H1571.15V1329.5H1603.5ZM1598.37 1446.2H1588.85C1588.85 1437 1590.07 1428.54 1592.51 1420.81C1594.96 1413.08 1598.41 1406.36 1602.89 1400.67C1607.37 1394.89 1612.7 1390.41 1618.88 1387.24C1625.15 1384.07 1632.06 1382.48 1639.63 1382.48C1646.14 1382.48 1652.04 1383.41 1657.33 1385.29C1662.7 1387.08 1667.3 1389.97 1671.13 1393.95C1674.95 1397.94 1677.88 1403.15 1679.92 1409.58C1682.03 1415.93 1683.09 1423.66 1683.09 1432.77V1517H1650.62V1432.53C1650.62 1426.42 1649.72 1421.62 1647.93 1418.12C1646.14 1414.54 1643.58 1411.98 1640.24 1410.43C1636.99 1408.89 1632.96 1408.11 1628.16 1408.11C1622.95 1408.11 1618.47 1409.13 1614.73 1411.17C1610.99 1413.12 1607.89 1415.84 1605.45 1419.34C1603.09 1422.84 1601.3 1426.87 1600.08 1431.43C1598.94 1435.99 1598.37 1440.91 1598.37 1446.2ZM1784.29 1488.92V1428.01C1784.29 1423.53 1783.51 1419.67 1781.97 1416.41C1780.42 1413.16 1778.06 1410.64 1774.89 1408.85C1771.71 1407.06 1767.68 1406.16 1762.8 1406.16C1758.49 1406.16 1754.7 1406.89 1751.45 1408.36C1748.28 1409.82 1745.83 1411.9 1744.12 1414.58C1742.42 1417.19 1741.56 1420.2 1741.56 1423.62H1709.21C1709.21 1418.16 1710.51 1413 1713.12 1408.11C1715.72 1403.15 1719.43 1398.75 1724.23 1394.93C1729.11 1391.02 1734.93 1387.97 1741.68 1385.77C1748.52 1383.58 1756.17 1382.48 1764.63 1382.48C1774.64 1382.48 1783.55 1384.19 1791.37 1387.61C1799.26 1390.94 1805.44 1395.99 1809.92 1402.74C1814.48 1409.5 1816.76 1418 1816.76 1428.25V1485.87C1816.76 1492.46 1817.16 1498.12 1817.98 1502.84C1818.87 1507.48 1820.17 1511.51 1821.88 1514.92V1517H1789.05C1787.5 1513.66 1786.32 1509.43 1785.51 1504.3C1784.69 1499.1 1784.29 1493.97 1784.29 1488.92ZM1788.8 1436.56L1789.05 1455.72H1768.66C1763.62 1455.72 1759.18 1456.25 1755.36 1457.31C1751.53 1458.28 1748.4 1459.75 1745.96 1461.7C1743.51 1463.57 1741.68 1465.85 1740.46 1468.54C1739.24 1471.14 1738.63 1474.11 1738.63 1477.45C1738.63 1480.7 1739.36 1483.63 1740.83 1486.24C1742.38 1488.84 1744.57 1490.92 1747.42 1492.46C1750.35 1493.93 1753.77 1494.66 1757.67 1494.66C1763.37 1494.66 1768.34 1493.52 1772.57 1491.24C1776.8 1488.88 1780.1 1486.03 1782.46 1482.7C1784.82 1479.36 1786.08 1476.19 1786.24 1473.18L1795.52 1487.09C1794.38 1490.43 1792.67 1493.97 1790.39 1497.71C1788.11 1501.46 1785.18 1504.96 1781.6 1508.21C1778.02 1511.47 1773.71 1514.15 1768.66 1516.27C1763.62 1518.38 1757.76 1519.44 1751.08 1519.44C1742.54 1519.44 1734.89 1517.73 1728.13 1514.31C1721.38 1510.9 1716.05 1506.22 1712.14 1500.28C1708.24 1494.34 1706.28 1487.58 1706.28 1480.01C1706.28 1473.01 1707.59 1466.83 1710.19 1461.46C1712.79 1456.09 1716.66 1451.57 1721.79 1447.91C1726.91 1444.16 1733.26 1441.36 1740.83 1439.49C1748.48 1437.53 1757.23 1436.56 1767.07 1436.56H1788.8ZM1887.68 1492.59L1918.44 1384.92H1952.13L1906.84 1517H1886.34L1887.68 1492.59ZM1865.22 1384.92L1896.35 1492.83L1897.45 1517H1876.82L1831.41 1384.92H1865.22ZM1953.35 1501.25C1953.35 1496.37 1955.02 1492.26 1958.36 1488.92C1961.69 1485.59 1966.21 1483.92 1971.91 1483.92C1977.6 1483.92 1982.12 1485.59 1985.46 1488.92C1988.79 1492.26 1990.46 1496.37 1990.46 1501.25C1990.46 1506.05 1988.79 1510.12 1985.46 1513.46C1982.12 1516.72 1977.6 1518.34 1971.91 1518.34C1966.21 1518.34 1961.69 1516.72 1958.36 1513.46C1955.02 1510.12 1953.35 1506.05 1953.35 1501.25ZM2024.4 1501.25C2024.4 1496.37 2026.07 1492.26 2029.4 1488.92C2032.74 1485.59 2037.26 1483.92 2042.95 1483.92C2048.65 1483.92 2053.17 1485.59 2056.5 1488.92C2059.84 1492.26 2061.51 1496.37 2061.51 1501.25C2061.51 1506.05 2059.84 1510.12 2056.5 1513.46C2053.17 1516.72 2048.65 1518.34 2042.95 1518.34C2037.26 1518.34 2032.74 1516.72 2029.4 1513.46C2026.07 1510.12 2024.4 1506.05 2024.4 1501.25ZM2095.44 1501.25C2095.44 1496.37 2097.11 1492.26 2100.45 1488.92C2103.78 1485.59 2108.3 1483.92 2114 1483.92C2119.69 1483.92 2124.21 1485.59 2127.55 1488.92C2130.88 1492.26 2132.55 1496.37 2132.55 1501.25C2132.55 1506.05 2130.88 1510.12 2127.55 1513.46C2124.21 1516.72 2119.69 1518.34 2114 1518.34C2108.3 1518.34 2103.78 1516.72 2100.45 1513.46C2097.11 1510.12 2095.44 1506.05 2095.44 1501.25Z" fill="white"/>
<defs>
<linearGradient id="paint0_linear_177_254" x1="1183" y1="-1.49648e-07" x2="1182.9" y2="812.417" gradientUnits="userSpaceOnUse">
<stop stop-color="#313131"/>
<stop offset="1" stop-color="#303030"/>
</linearGradient>
</defs>
</svg>
