<svg width="4784" height="2570" viewBox="0 0 4784 2570" fill="none" xmlns="http://www.w3.org/2000/svg">
<rect width="4784" height="2570" fill="url(#paint0_linear_213_2)"/>
<g filter="url(#filter0_f_213_2)">
<ellipse cx="3006.5" cy="1102.5" rx="995.5" ry="74.5" fill="#0060B9"/>
</g>
<path d="M2556.3 1093.9C2550.9 1093.9 2546.8 1093.8 2544 1093.6C2535.4 1131.2 2530.6 1157.3 2529.6 1171.9C2521 1176.1 2507.9 1178.2 2490.3 1178.2C2486.5 1178.2 2483.9 1178.1 2482.5 1177.9C2483.9 1166.1 2489.9 1136.5 2500.5 1089.1C2511.1 1041.5 2516.4 1011.5 2516.4 999.1C2516.4 996.7 2515 993.6 2512.2 989.8C2509.6 985.8 2506.9 982.5 2504.1 979.9L2500.2 976L2501.1 971.5C2534.7 966.5 2561.9 964 2582.7 964C2623.9 964 2644.5 980.8 2644.5 1014.4C2644.5 1036.8 2637.1 1055.7 2622.3 1071.1C2607.5 1086.3 2585.5 1093.9 2556.3 1093.9ZM2551.5 1073.8C2566.9 1073.8 2578.5 1068 2586.3 1056.4C2594.3 1044.8 2598.3 1029.3 2598.3 1009.9C2598.3 1001.9 2596.8 995.4 2593.8 990.4C2590.8 985.2 2586.4 982.6 2580.6 982.6C2576.8 982.6 2572.1 983.3 2566.5 984.7C2563.3 1005.7 2557.3 1035.4 2548.5 1073.8H2551.5ZM2665.17 1180.6C2658.37 1180.6 2652.67 1178.3 2648.07 1173.7C2643.67 1169.1 2641.47 1162.7 2641.47 1154.5C2641.47 1146.1 2646.37 1119.6 2656.17 1075C2666.17 1030.2 2671.17 997.9 2671.17 978.1L2669.37 964.9C2684.97 959.5 2699.57 956.8 2713.17 956.8C2715.17 959.6 2716.17 964.5 2716.17 971.5C2716.17 987.5 2711.07 1018.5 2700.87 1064.5C2690.87 1110.3 2685.87 1137 2685.87 1144.6C2685.87 1152 2686.77 1155.7 2688.57 1155.7L2709.57 1148.2L2714.97 1158.7C2708.17 1164.1 2699.87 1169.1 2690.07 1173.7C2680.47 1178.3 2672.17 1180.6 2665.17 1180.6ZM2720.55 1125.1C2720.55 1100.1 2728.05 1080.4 2743.05 1066C2758.25 1051.4 2775.45 1044.1 2794.65 1044.1C2806.45 1044.1 2816.15 1047 2823.75 1052.8C2831.35 1058.6 2835.15 1066.4 2835.15 1076.2C2835.15 1085.8 2832.65 1093.9 2827.65 1100.5C2822.85 1107.1 2816.95 1112.2 2809.95 1115.8C2795.75 1122.8 2782.75 1127.2 2770.95 1129L2763.75 1129.9C2765.15 1148.7 2772.85 1158.1 2786.85 1158.1C2791.65 1158.1 2796.75 1156.9 2802.15 1154.5C2807.55 1152.1 2811.75 1149.7 2814.75 1147.3L2819.25 1143.7L2826.45 1153.3C2824.85 1155.5 2821.65 1158.4 2816.85 1162C2812.05 1165.6 2807.55 1168.6 2803.35 1171C2791.75 1177.4 2779.05 1180.6 2765.25 1180.6C2751.45 1180.6 2740.55 1175.7 2732.55 1165.9C2724.55 1156.1 2720.55 1142.5 2720.55 1125.1ZM2763.45 1115.2C2773.65 1113.4 2781.75 1109.1 2787.75 1102.3C2793.75 1095.5 2796.75 1086.7 2796.75 1075.9C2796.75 1065.1 2793.55 1059.7 2787.15 1059.7C2779.55 1059.7 2773.65 1066.2 2769.45 1079.2C2765.45 1092 2763.45 1104 2763.45 1115.2ZM2930.98 1052.8C2931.38 1052.4 2932.48 1049.8 2934.28 1045C2943.68 1045 2956.28 1047.8 2972.08 1053.4C2967.08 1070 2963.08 1087.4 2960.08 1105.6C2957.08 1123.6 2955.58 1136.5 2955.58 1144.3C2955.58 1151.9 2956.38 1155.7 2957.98 1155.7C2959.18 1155.7 2963.58 1153.8 2971.18 1150L2974.78 1148.2L2980.18 1158.7C2978.38 1160.3 2975.98 1162.3 2972.98 1164.7C2970.18 1167.1 2964.78 1170.4 2956.78 1174.6C2948.78 1178.6 2941.58 1180.6 2935.18 1180.6C2922.78 1180.6 2915.58 1175 2913.58 1163.8C2900.78 1175 2889.18 1180.6 2878.78 1180.6C2868.58 1180.6 2859.88 1176.6 2852.68 1168.6C2845.68 1160.6 2842.18 1148 2842.18 1130.8C2842.18 1104 2847.68 1082.9 2858.68 1067.5C2869.68 1051.9 2882.98 1044.1 2898.58 1044.1C2909.78 1044.1 2920.58 1047 2930.98 1052.8ZM2896.78 1155.1C2901.58 1155.1 2906.98 1153.2 2912.98 1149.4C2914.38 1121.2 2919.08 1093.3 2927.08 1065.7C2921.08 1063.1 2915.98 1061.8 2911.78 1061.8C2904.58 1061.8 2898.38 1068.9 2893.18 1083.1C2888.18 1097.1 2885.68 1112.6 2885.68 1129.6C2885.68 1146.6 2889.38 1155.1 2896.78 1155.1ZM3074.9 1137.7C3074.9 1150.3 3069.3 1160.6 3058.1 1168.6C3047.1 1176.6 3034.5 1180.6 3020.3 1180.6C3006.1 1180.6 2994.8 1177.6 2986.4 1171.6C2978.2 1165.6 2974.1 1160.3 2974.1 1155.7C2974.1 1152.9 2977.6 1148.4 2984.6 1142.2C2991.6 1135.8 2997.5 1131.9 3002.3 1130.5C3012.3 1137.9 3020.5 1149.6 3026.9 1165.6C3034.3 1165 3038 1161.5 3038 1155.1C3038 1145.9 3029.9 1132.9 3013.7 1116.1C2997.5 1099.1 2989.4 1085.6 2989.4 1075.6C2989.4 1065.6 2993.9 1057.9 3002.9 1052.5C3011.9 1046.9 3022.7 1044.1 3035.3 1044.1C3048.1 1044.1 3057.7 1046.4 3064.1 1051C3070.5 1055.4 3073.7 1061.5 3073.7 1069.3C3073.7 1076.9 3067.6 1087.5 3055.4 1101.1C3056.8 1102.5 3058.6 1104.4 3060.8 1106.8C3063 1109 3065.9 1113.3 3069.5 1119.7C3073.1 1126.1 3074.9 1132.1 3074.9 1137.7ZM3046.1 1090.6C3054.5 1083.4 3058.7 1076.3 3058.7 1069.3C3058.7 1062.3 3053.9 1058.8 3044.3 1058.8C3039.7 1058.8 3035.9 1059.8 3032.9 1061.8C3029.9 1063.6 3028.4 1065.7 3028.4 1068.1C3028.4 1072.5 3032.8 1078.7 3041.6 1086.7L3046.1 1090.6ZM3087.64 1125.1C3087.64 1100.1 3095.14 1080.4 3110.14 1066C3125.34 1051.4 3142.54 1044.1 3161.74 1044.1C3173.54 1044.1 3183.24 1047 3190.84 1052.8C3198.44 1058.6 3202.24 1066.4 3202.24 1076.2C3202.24 1085.8 3199.74 1093.9 3194.74 1100.5C3189.94 1107.1 3184.04 1112.2 3177.04 1115.8C3162.84 1122.8 3149.84 1127.2 3138.04 1129L3130.84 1129.9C3132.24 1148.7 3139.94 1158.1 3153.94 1158.1C3158.74 1158.1 3163.84 1156.9 3169.24 1154.5C3174.64 1152.1 3178.84 1149.7 3181.84 1147.3L3186.34 1143.7L3193.54 1153.3C3191.94 1155.5 3188.74 1158.4 3183.94 1162C3179.14 1165.6 3174.64 1168.6 3170.44 1171C3158.84 1177.4 3146.14 1180.6 3132.34 1180.6C3118.54 1180.6 3107.64 1175.7 3099.64 1165.9C3091.64 1156.1 3087.64 1142.5 3087.64 1125.1ZM3130.54 1115.2C3140.74 1113.4 3148.84 1109.1 3154.84 1102.3C3160.84 1095.5 3163.84 1086.7 3163.84 1075.9C3163.84 1065.1 3160.64 1059.7 3154.24 1059.7C3146.64 1059.7 3140.74 1066.2 3136.54 1079.2C3132.54 1092 3130.54 1104 3130.54 1115.2ZM3275.33 1152.4L3278.63 1074.1C3278.63 1067.3 3275.03 1060.3 3267.83 1053.1L3268.43 1049.5C3269.83 1049.1 3271.13 1048.8 3272.33 1048.6C3273.73 1048.2 3275.23 1047.8 3276.83 1047.4C3278.63 1047 3280.63 1046.6 3282.83 1046.2C3285.03 1045.8 3287.33 1045.4 3289.73 1045C3295.33 1044.4 3300.53 1044.1 3305.33 1044.1C3310.33 1044.1 3314.53 1046.1 3317.93 1050.1C3321.53 1054.1 3323.33 1060.5 3323.33 1069.3C3323.33 1077.9 3321.93 1090.3 3319.13 1106.5C3316.53 1122.5 3315.23 1134.5 3315.23 1142.5C3315.23 1150.3 3317.13 1154.2 3320.93 1154.2C3327.13 1154.2 3333.93 1150.3 3341.33 1142.5C3341.53 1139.3 3342.83 1129.1 3345.23 1111.9C3347.63 1094.7 3348.83 1082.2 3348.83 1074.4C3348.83 1066.6 3348.23 1059.9 3347.03 1054.3C3362.43 1048.5 3376.23 1045.6 3388.43 1045.6C3391.03 1047.4 3392.33 1053.3 3392.33 1063.3C3392.33 1073.1 3390.63 1086.8 3387.23 1104.4C3383.83 1121.8 3382.13 1134.5 3382.13 1142.5C3382.13 1150.3 3383.73 1154.2 3386.93 1154.2C3394.53 1154.2 3402.83 1148.6 3411.83 1137.4C3420.83 1126 3425.63 1116.5 3426.23 1108.9L3405.83 1086.1C3406.63 1077.5 3408.73 1069.7 3412.13 1062.7C3415.53 1055.7 3418.73 1050.8 3421.73 1048L3425.93 1044.1C3434.53 1044.1 3441.03 1046.4 3445.43 1051C3449.83 1055.6 3452.03 1061 3452.03 1067.2C3452.03 1083 3448.13 1099.7 3440.33 1117.3C3432.53 1134.9 3422.03 1149.9 3408.83 1162.3C3395.63 1174.5 3382.23 1180.6 3368.63 1180.6C3361.83 1180.6 3356.03 1178.7 3351.23 1174.9C3346.63 1170.9 3343.53 1165.8 3341.93 1159.6C3327.93 1173.6 3314.33 1180.6 3301.13 1180.6C3292.33 1180.6 3285.83 1177.9 3281.63 1172.5C3277.43 1166.9 3275.33 1160.2 3275.33 1152.4ZM3545.33 1052.8C3545.73 1052.4 3546.83 1049.8 3548.63 1045C3558.03 1045 3570.63 1047.8 3586.43 1053.4C3581.43 1070 3577.43 1087.4 3574.43 1105.6C3571.43 1123.6 3569.93 1136.5 3569.93 1144.3C3569.93 1151.9 3570.73 1155.7 3572.33 1155.7C3573.53 1155.7 3577.93 1153.8 3585.53 1150L3589.13 1148.2L3594.53 1158.7C3592.73 1160.3 3590.33 1162.3 3587.33 1164.7C3584.53 1167.1 3579.13 1170.4 3571.13 1174.6C3563.13 1178.6 3555.93 1180.6 3549.53 1180.6C3537.13 1180.6 3529.93 1175 3527.93 1163.8C3515.13 1175 3503.53 1180.6 3493.13 1180.6C3482.93 1180.6 3474.23 1176.6 3467.03 1168.6C3460.03 1160.6 3456.53 1148 3456.53 1130.8C3456.53 1104 3462.03 1082.9 3473.03 1067.5C3484.03 1051.9 3497.33 1044.1 3512.93 1044.1C3524.13 1044.1 3534.93 1047 3545.33 1052.8ZM3511.13 1155.1C3515.93 1155.1 3521.33 1153.2 3527.33 1149.4C3528.73 1121.2 3533.43 1093.3 3541.43 1065.7C3535.43 1063.1 3530.33 1061.8 3526.13 1061.8C3518.93 1061.8 3512.73 1068.9 3507.53 1083.1C3502.53 1097.1 3500.03 1112.6 3500.03 1129.6C3500.03 1146.6 3503.73 1155.1 3511.13 1155.1ZM3662.17 1062.7C3662.17 1071.1 3659.47 1085.6 3654.07 1106.2C3648.67 1126.6 3645.97 1140 3645.97 1146.4C3645.97 1152.6 3646.87 1155.7 3648.67 1155.7C3649.87 1155.7 3654.47 1153.8 3662.47 1150L3666.07 1148.2L3671.17 1158.7C3669.37 1160.3 3666.97 1162.3 3663.97 1164.7C3660.97 1167.1 3655.37 1170.4 3647.17 1174.6C3638.97 1178.6 3631.37 1180.6 3624.37 1180.6C3617.37 1180.6 3611.87 1178.5 3607.87 1174.3C3603.87 1169.9 3601.87 1164.1 3601.87 1156.9C3601.87 1149.5 3604.37 1136.5 3609.37 1117.9C3614.37 1099.1 3616.87 1086.9 3616.87 1081.3C3616.87 1072.9 3614.27 1065 3609.07 1057.6L3606.37 1054L3606.67 1050.1C3617.27 1047.1 3634.47 1045.6 3658.27 1045.6C3660.87 1048.6 3662.17 1054.3 3662.17 1062.7ZM3627.97 1012.9C3623.97 1008.9 3621.97 1003.6 3621.97 997C3621.97 990.4 3624.67 984.6 3630.07 979.6C3635.67 974.6 3642.07 972.1 3649.27 972.1C3656.47 972.1 3662.07 974.1 3666.07 978.1C3670.07 982.1 3672.07 987.4 3672.07 994C3672.07 1000.4 3669.17 1006.1 3663.37 1011.1C3657.77 1016.1 3651.47 1018.6 3644.47 1018.6C3637.47 1018.6 3631.97 1016.7 3627.97 1012.9ZM3775.71 1047.7C3775.31 1052.7 3773.61 1058.5 3770.61 1065.1C3763.01 1064.3 3755.81 1063.9 3749.01 1063.9H3743.61C3734.41 1108.5 3729.81 1136.3 3729.81 1147.3C3729.81 1153.1 3731.01 1156 3733.41 1156C3736.01 1156 3742.71 1153.5 3753.51 1148.5L3758.91 1158.4C3741.11 1173.2 3724.61 1180.6 3709.41 1180.6C3702.41 1180.6 3696.61 1178.4 3692.01 1174C3687.61 1169.6 3685.41 1163.8 3685.41 1156.6C3685.41 1149.2 3686.21 1140.9 3687.81 1131.7C3689.61 1122.5 3692.01 1111.3 3695.01 1098.1C3698.01 1084.7 3700.21 1073.9 3701.61 1065.7C3694.21 1066.3 3688.71 1066.9 3685.11 1067.5C3684.71 1065.1 3684.51 1061.9 3684.51 1057.9C3684.51 1053.7 3684.81 1050.3 3685.41 1047.7H3704.31C3705.91 1036.9 3706.71 1026.7 3706.71 1017.1L3706.41 1007.8V1006.9C3722.01 1001.5 3736.71 998.8 3750.51 998.8C3751.31 1002.8 3751.71 1007.8 3751.71 1013.8C3751.71 1019.8 3750.01 1031.1 3746.61 1047.7H3775.71ZM3847.69 977.8C3847.69 997.6 3841.19 1028.7 3828.19 1071.1C3827.19 1074.5 3825.29 1080.7 3822.49 1089.7C3819.89 1098.5 3817.89 1105.3 3816.49 1110.1C3811.09 1111.9 3806.29 1112.8 3802.09 1112.8C3798.09 1112.8 3794.49 1112.6 3791.29 1112.2C3798.49 1068.8 3802.09 1030.5 3802.09 997.3L3800.29 972.1C3817.29 966.7 3832.49 964 3845.89 964C3847.09 965.8 3847.69 970.4 3847.69 977.8ZM3776.59 1174.9C3772.59 1170.9 3770.59 1165.6 3770.59 1159C3770.59 1152.4 3773.29 1146.6 3778.69 1141.6C3784.29 1136.6 3790.69 1134.1 3797.89 1134.1C3805.09 1134.1 3810.69 1136.1 3814.69 1140.1C3818.69 1144.1 3820.69 1149.4 3820.69 1156C3820.69 1162.4 3817.79 1168.1 3811.99 1173.1C3806.39 1178.1 3800.09 1180.6 3793.09 1180.6C3786.09 1180.6 3780.59 1178.7 3776.59 1174.9ZM3937.04 977.8C3937.04 997.6 3930.54 1028.7 3917.54 1071.1C3916.54 1074.5 3914.64 1080.7 3911.84 1089.7C3909.24 1098.5 3907.24 1105.3 3905.84 1110.1C3900.44 1111.9 3895.64 1112.8 3891.44 1112.8C3887.44 1112.8 3883.84 1112.6 3880.64 1112.2C3887.84 1068.8 3891.44 1030.5 3891.44 997.3L3889.64 972.1C3906.64 966.7 3921.84 964 3935.24 964C3936.44 965.8 3937.04 970.4 3937.04 977.8ZM3865.94 1174.9C3861.94 1170.9 3859.94 1165.6 3859.94 1159C3859.94 1152.4 3862.64 1146.6 3868.04 1141.6C3873.64 1136.6 3880.04 1134.1 3887.24 1134.1C3894.44 1134.1 3900.04 1136.1 3904.04 1140.1C3908.04 1144.1 3910.04 1149.4 3910.04 1156C3910.04 1162.4 3907.14 1168.1 3901.34 1173.1C3895.74 1178.1 3889.44 1180.6 3882.44 1180.6C3875.44 1180.6 3869.94 1178.7 3865.94 1174.9Z" fill="#00FFF0"/>
<g filter="url(#filter1_f_213_2)">
<ellipse cx="1534" cy="1102.5" rx="785" ry="74.5" fill="#0060B9"/>
</g>
<path d="M1040 1162.6C1037.6 1168.8 1033.8 1173.7 1028.6 1177.3C1023.6 1180.9 1017.6 1182.7 1010.6 1182.7C1003.8 1182.7 993.5 1178.5 979.7 1170.1C966.1 1161.7 955.2 1156.3 947 1153.9C941.6 1161.1 935.5 1167.1 928.7 1171.9C921.9 1176.7 917.2 1179.1 914.6 1179.1C912.6 1179.1 908.6 1174.8 902.6 1166.2C896.6 1157.4 893.6 1151.1 893.6 1147.3C893.6 1145.1 896.7 1141.8 902.9 1137.4C909.3 1133 916 1130 923 1128.4C928 1116.2 933.2 1098.2 938.6 1074.4C944 1050.4 948.2 1025.7 951.2 1000.3C951.2 997.1 950.1 993.3 947.9 988.9C945.9 984.3 943.8 980.6 941.6 977.8L938.6 973.6L939.5 969.1C951.5 965.7 971.2 964 998.6 964C1001.2 968.4 1002.5 975.1 1002.5 984.1C1002.5 993.1 999.9 1006.5 994.7 1024.3C989.5 1042.1 982.3 1063.5 973.1 1088.5C964.1 1113.3 958.9 1128 957.5 1132.6C958.3 1132.8 960.8 1133.5 965 1134.7C969.2 1135.9 971.9 1136.7 973.1 1137.1C974.5 1137.3 977.1 1137.9 980.9 1138.9C984.7 1139.7 987.7 1140.3 989.9 1140.7C992.1 1140.9 995 1141.2 998.6 1141.6C1004.8 1142.6 1010.6 1143.1 1016 1143.1C1021.6 1143.1 1025.6 1141.7 1028 1138.9L1036.4 1123.3L1046.3 1125.7C1046.3 1138.7 1044.2 1151 1040 1162.6ZM1097.29 1180.6C1083.49 1180.6 1072.69 1175.8 1064.89 1166.2C1057.09 1156.4 1053.19 1142.8 1053.19 1125.4C1053.19 1103.2 1059.09 1084.1 1070.89 1068.1C1082.89 1052.1 1099.39 1044.1 1120.39 1044.1L1131.19 1044.7C1134.59 1042.9 1138.39 1042 1142.59 1042C1158.39 1042 1166.29 1056.9 1166.29 1086.7C1174.49 1086.3 1182.79 1085.2 1191.19 1083.4L1195.99 1082.2L1197.79 1093.9C1191.19 1096.7 1182.29 1099.2 1171.09 1101.4L1165.09 1102.6C1161.29 1123.6 1153.59 1141.9 1141.99 1157.5C1130.39 1172.9 1115.49 1180.6 1097.29 1180.6ZM1113.49 1154.8C1121.89 1154.8 1129.39 1149.4 1135.99 1138.6C1142.79 1127.8 1147.49 1116.4 1150.09 1104.4C1128.69 1104.4 1117.99 1096.4 1117.99 1080.4C1117.99 1074 1119.29 1068 1121.89 1062.4L1123.39 1059.4C1122.59 1059 1121.59 1058.8 1120.39 1058.8C1119.19 1058.8 1118.29 1059 1117.69 1059.4C1112.69 1062.6 1107.99 1070.1 1103.59 1081.9C1099.19 1093.7 1096.99 1107.2 1096.99 1122.4C1096.99 1144 1102.49 1154.8 1113.49 1154.8ZM1270.38 1052.8C1270.78 1052.4 1271.88 1049.8 1273.68 1045C1283.08 1045 1295.68 1047.8 1311.48 1053.4C1306.48 1070 1302.48 1087.4 1299.48 1105.6C1296.48 1123.6 1294.98 1136.5 1294.98 1144.3C1294.98 1151.9 1295.78 1155.7 1297.38 1155.7C1298.58 1155.7 1302.98 1153.8 1310.58 1150L1314.18 1148.2L1319.58 1158.7C1317.78 1160.3 1315.38 1162.3 1312.38 1164.7C1309.58 1167.1 1304.18 1170.4 1296.18 1174.6C1288.18 1178.6 1280.98 1180.6 1274.58 1180.6C1262.18 1180.6 1254.98 1175 1252.98 1163.8C1240.18 1175 1228.58 1180.6 1218.18 1180.6C1207.98 1180.6 1199.28 1176.6 1192.08 1168.6C1185.08 1160.6 1181.58 1148 1181.58 1130.8C1181.58 1104 1187.08 1082.9 1198.08 1067.5C1209.08 1051.9 1222.38 1044.1 1237.98 1044.1C1249.18 1044.1 1259.98 1047 1270.38 1052.8ZM1236.18 1155.1C1240.98 1155.1 1246.38 1153.2 1252.38 1149.4C1253.78 1121.2 1258.48 1093.3 1266.48 1065.7C1260.48 1063.1 1255.38 1061.8 1251.18 1061.8C1243.98 1061.8 1237.78 1068.9 1232.58 1083.1C1227.58 1097.1 1225.08 1112.6 1225.08 1129.6C1225.08 1146.6 1228.78 1155.1 1236.18 1155.1ZM1467.32 1158.7C1450.32 1173.3 1435.32 1180.6 1422.32 1180.6C1409.52 1180.6 1402.12 1174.2 1400.12 1161.4C1394.12 1167.4 1387.42 1172.1 1380.02 1175.5C1372.62 1178.9 1366.12 1180.6 1360.52 1180.6C1350.92 1180.6 1342.72 1176.4 1335.92 1168C1329.12 1159.6 1325.72 1146.6 1325.72 1129C1325.72 1102.6 1331.32 1081.9 1342.52 1066.9C1353.72 1051.7 1366.32 1044.1 1380.32 1044.1C1394.52 1044.1 1406.42 1047.3 1416.02 1053.7C1422.22 1021.3 1425.32 995.8 1425.32 977.2L1423.82 964.6C1438.82 959.4 1453.52 956.8 1467.92 956.8C1469.52 960.2 1470.32 964.1 1470.32 968.5C1470.32 983.1 1465.92 1012.8 1457.12 1057.6C1448.32 1102.2 1443.92 1132.5 1443.92 1148.5C1443.92 1153.3 1445.02 1155.7 1447.22 1155.7C1448.42 1155.7 1452.22 1153.8 1458.62 1150L1461.62 1148.2L1467.32 1158.7ZM1395.02 1061.8C1388.02 1061.8 1381.92 1068.7 1376.72 1082.5C1371.72 1096.3 1369.22 1110 1369.22 1123.6C1369.22 1137 1370.12 1145.6 1371.92 1149.4C1373.92 1153.2 1376.82 1155.1 1380.62 1155.1C1387.22 1155.1 1393.72 1152.4 1400.12 1147C1400.72 1139 1405.22 1112.4 1413.62 1067.2C1406.82 1063.6 1400.62 1061.8 1395.02 1061.8ZM1537.8 1062.7C1537.8 1071.1 1535.1 1085.6 1529.7 1106.2C1524.3 1126.6 1521.6 1140 1521.6 1146.4C1521.6 1152.6 1522.5 1155.7 1524.3 1155.7C1525.5 1155.7 1530.1 1153.8 1538.1 1150L1541.7 1148.2L1546.8 1158.7C1545 1160.3 1542.6 1162.3 1539.6 1164.7C1536.6 1167.1 1531 1170.4 1522.8 1174.6C1514.6 1178.6 1507 1180.6 1500 1180.6C1493 1180.6 1487.5 1178.5 1483.5 1174.3C1479.5 1169.9 1477.5 1164.1 1477.5 1156.9C1477.5 1149.5 1480 1136.5 1485 1117.9C1490 1099.1 1492.5 1086.9 1492.5 1081.3C1492.5 1072.9 1489.9 1065 1484.7 1057.6L1482 1054L1482.3 1050.1C1492.9 1047.1 1510.1 1045.6 1533.9 1045.6C1536.5 1048.6 1537.8 1054.3 1537.8 1062.7ZM1503.6 1012.9C1499.6 1008.9 1497.6 1003.6 1497.6 997C1497.6 990.4 1500.3 984.6 1505.7 979.6C1511.3 974.6 1517.7 972.1 1524.9 972.1C1532.1 972.1 1537.7 974.1 1541.7 978.1C1545.7 982.1 1547.7 987.4 1547.7 994C1547.7 1000.4 1544.8 1006.1 1539 1011.1C1533.4 1016.1 1527.1 1018.6 1520.1 1018.6C1513.1 1018.6 1507.6 1016.7 1503.6 1012.9ZM1565.54 1177.9H1559.84C1559.84 1168.5 1562.64 1150.5 1568.24 1123.9C1574.04 1097.3 1576.94 1082.2 1576.94 1078.6C1576.94 1072 1574.14 1065 1568.54 1057.6L1565.84 1054L1566.14 1050.1C1576.94 1047.1 1594.24 1045.6 1618.04 1045.6C1620.64 1049 1622.04 1055.2 1622.24 1064.2C1639.64 1050.8 1654.34 1044.1 1666.34 1044.1C1673.54 1044.1 1679.24 1046.6 1683.44 1051.6C1687.84 1056.6 1690.04 1062.9 1690.04 1070.5C1690.04 1077.9 1687.74 1090.8 1683.14 1109.2C1678.54 1127.6 1676.24 1140 1676.24 1146.4C1676.24 1152.6 1677.04 1155.7 1678.64 1155.7C1679.84 1155.7 1684.04 1153.8 1691.24 1150L1694.84 1148.2L1700.24 1158.7C1698.44 1160.3 1696.04 1162.3 1693.04 1164.7C1690.04 1167.1 1684.44 1170.4 1676.24 1174.6C1668.24 1178.6 1661.04 1180.6 1654.64 1180.6C1640.04 1180.6 1632.74 1172.3 1632.74 1155.7C1632.74 1148.7 1634.94 1135.8 1639.34 1117C1643.94 1098.2 1646.24 1086.1 1646.24 1080.7C1646.24 1075.3 1644.54 1072.6 1641.14 1072.6C1635.34 1072.6 1628.24 1075.1 1619.84 1080.1C1619.24 1083.5 1617.24 1092.5 1613.84 1107.1C1606.84 1138.5 1603.34 1160.7 1603.34 1173.7C1596.34 1176.5 1583.74 1177.9 1565.54 1177.9ZM1747.59 1209.4C1740.99 1213.4 1737.69 1217.3 1737.69 1221.1C1737.69 1224.9 1739.79 1226.8 1743.99 1226.8C1748.39 1226.8 1753.29 1224.7 1758.69 1220.5C1764.09 1216.5 1768.59 1209.9 1772.19 1200.7C1762.59 1202.5 1754.39 1205.4 1747.59 1209.4ZM1836.69 1046.2C1837.49 1047 1837.89 1048.8 1837.89 1051.6C1837.89 1054.2 1837.69 1057.1 1837.29 1060.3C1836.89 1063.3 1836.19 1070.2 1835.19 1081C1834.19 1091.8 1833.19 1101.2 1832.19 1109.2C1821.99 1199.2 1794.59 1244.2 1749.99 1244.2C1742.79 1244.2 1736.19 1242.3 1730.19 1238.5C1724.39 1234.7 1721.49 1229.8 1721.49 1223.8C1721.49 1215.8 1726.39 1208.5 1736.19 1201.9C1745.99 1195.3 1759.19 1190.2 1775.79 1186.6C1775.79 1186.4 1776.39 1183.6 1777.59 1178.2C1778.79 1172.8 1779.59 1168.4 1779.99 1165C1767.99 1173.8 1756.69 1178.2 1746.09 1178.2C1735.69 1178.2 1727.09 1174.1 1720.29 1165.9C1713.69 1157.7 1710.39 1144.6 1710.39 1126.6C1710.39 1103 1715.69 1083.4 1726.29 1067.8C1736.89 1052 1750.89 1044.1 1768.29 1044.1C1778.09 1044.1 1787.79 1046.5 1797.39 1051.3C1807.59 1047.7 1818.59 1045.9 1830.39 1045.9L1836.69 1046.2ZM1781.79 1061.8C1773.19 1061.8 1766.39 1068.8 1761.39 1082.8C1756.39 1096.6 1753.89 1112 1753.89 1129C1753.89 1145.8 1757.69 1154.2 1765.29 1154.2C1770.29 1154.2 1776.19 1152.3 1782.99 1148.5C1788.59 1114.9 1792.59 1087.2 1794.99 1065.4C1789.39 1063 1784.99 1061.8 1781.79 1061.8ZM1874.45 1180.6C1867.45 1180.6 1862.05 1178.5 1858.25 1174.3C1854.45 1170.1 1852.55 1164.5 1852.55 1157.5C1852.55 1150.5 1855.15 1144.5 1860.35 1139.5C1865.55 1134.3 1871.65 1131.7 1878.65 1131.7C1885.85 1131.7 1891.35 1133.8 1895.15 1138C1898.95 1142 1900.85 1147.5 1900.85 1154.5C1900.85 1161.3 1898.15 1167.4 1892.75 1172.8C1887.55 1178 1881.45 1180.6 1874.45 1180.6ZM1948.87 1180.6C1941.87 1180.6 1936.47 1178.5 1932.67 1174.3C1928.87 1170.1 1926.97 1164.5 1926.97 1157.5C1926.97 1150.5 1929.57 1144.5 1934.77 1139.5C1939.97 1134.3 1946.07 1131.7 1953.07 1131.7C1960.27 1131.7 1965.77 1133.8 1969.57 1138C1973.37 1142 1975.27 1147.5 1975.27 1154.5C1975.27 1161.3 1972.57 1167.4 1967.17 1172.8C1961.97 1178 1955.87 1180.6 1948.87 1180.6ZM2023.28 1180.6C2016.28 1180.6 2010.88 1178.5 2007.08 1174.3C2003.28 1170.1 2001.38 1164.5 2001.38 1157.5C2001.38 1150.5 2003.98 1144.5 2009.18 1139.5C2014.38 1134.3 2020.48 1131.7 2027.48 1131.7C2034.68 1131.7 2040.18 1133.8 2043.98 1138C2047.78 1142 2049.68 1147.5 2049.68 1154.5C2049.68 1161.3 2046.98 1167.4 2041.58 1172.8C2036.38 1178 2030.28 1180.6 2023.28 1180.6ZM2097.69 1180.6C2090.69 1180.6 2085.29 1178.5 2081.49 1174.3C2077.69 1170.1 2075.79 1164.5 2075.79 1157.5C2075.79 1150.5 2078.39 1144.5 2083.59 1139.5C2088.79 1134.3 2094.89 1131.7 2101.89 1131.7C2109.09 1131.7 2114.59 1133.8 2118.39 1138C2122.19 1142 2124.09 1147.5 2124.09 1154.5C2124.09 1161.3 2121.39 1167.4 2115.99 1172.8C2110.79 1178 2104.69 1180.6 2097.69 1180.6ZM2172.11 1180.6C2165.11 1180.6 2159.71 1178.5 2155.91 1174.3C2152.11 1170.1 2150.21 1164.5 2150.21 1157.5C2150.21 1150.5 2152.81 1144.5 2158.01 1139.5C2163.21 1134.3 2169.31 1131.7 2176.31 1131.7C2183.51 1131.7 2189.01 1133.8 2192.81 1138C2196.61 1142 2198.51 1147.5 2198.51 1154.5C2198.51 1161.3 2195.81 1167.4 2190.41 1172.8C2185.21 1178 2179.11 1180.6 2172.11 1180.6ZM2246.52 1180.6C2239.52 1180.6 2234.12 1178.5 2230.32 1174.3C2226.52 1170.1 2224.62 1164.5 2224.62 1157.5C2224.62 1150.5 2227.22 1144.5 2232.42 1139.5C2237.62 1134.3 2243.72 1131.7 2250.72 1131.7C2257.92 1131.7 2263.42 1133.8 2267.22 1138C2271.02 1142 2272.92 1147.5 2272.92 1154.5C2272.92 1161.3 2270.22 1167.4 2264.82 1172.8C2259.62 1178 2253.52 1180.6 2246.52 1180.6Z" fill="#00FFF0"/>
<path d="M590.5 1301.5H4194.5V1648.5H590.5V1301.5Z" fill="#808080" stroke="#04E7DE" stroke-width="25"/>
<rect x="602" y="1314" width="2093" height="322" fill="white"/>
<defs>
<filter id="filter0_f_213_2" x="1611" y="628" width="2791" height="949" filterUnits="userSpaceOnUse" color-interpolation-filters="sRGB">
<feFlood flood-opacity="0" result="BackgroundImageFix"/>
<feBlend mode="normal" in="SourceGraphic" in2="BackgroundImageFix" result="shape"/>
<feGaussianBlur stdDeviation="200" result="effect1_foregroundBlur_213_2"/>
</filter>
<filter id="filter1_f_213_2" x="349" y="628" width="2370" height="949" filterUnits="userSpaceOnUse" color-interpolation-filters="sRGB">
<feFlood flood-opacity="0" result="BackgroundImageFix"/>
<feBlend mode="normal" in="SourceGraphic" in2="BackgroundImageFix" result="shape"/>
<feGaussianBlur stdDeviation="200" result="effect1_foregroundBlur_213_2"/>
</filter>
<linearGradient id="paint0_linear_213_2" x1="1183" y1="-1.49648e-07" x2="1182.9" y2="812.417" gradientUnits="userSpaceOnUse">
<stop stop-color="#313131"/>
<stop offset="1" stop-color="#303030"/>
</linearGradient>
</defs>
</svg>
